<svg xmlns="http://www.w3.org/2000/svg" width="1920" height="1080" viewBox="0 0 1920 1080"><rect x="0.0" y="0.0" width="1920.0" height="1080.0" rx="0" fill="#F4F6FA"/><text x="96.0" y="103.7" font-family="Noto Sans KR, Malgun Gothic, sans-serif" font-size="22.1" font-weight="700" fill="#5C6675">문제정의</text><text x="1824.0" y="107.5" font-family="Noto Sans KR, Malgun Gothic, sans-serif" font-size="36.5" font-weight="900" fill="#1B3A8F" text-anchor="end">ULSE</text><text x="1738.9" y="107.5" font-family="Noto Sans KR, Malgun Gothic, sans-serif" font-size="36.5" font-weight="900" fill="#2A54C6" text-anchor="end">▶</text><text x="96.0" y="184.3" font-family="Noto Sans KR, Malgun Gothic, sans-serif" font-size="58.6" font-weight="900"><tspan fill="#14171D">규모는 크지만, 수익은 얇고 </tspan><tspan fill="#1B3A8F">원가·경쟁 부담</tspan><tspan fill="#14171D">은 큰 외식업</tspan></text><text x="96.0" y="241.9" font-family="Noto Sans KR, Malgun Gothic, sans-serif" font-size="27.3" font-weight="500" fill="#5C6675">만안구 음식점·주점업 3,175개 · 매출 100원 중 남는 이익은 8.7원</text><text x="96.0" y="489.6" font-family="Noto Sans KR, Malgun Gothic, sans-serif" font-size="126.7" font-weight="900" fill="#1B3A8F">3,175개</text><text x="96.0" y="539.5" font-family="Noto Sans KR, Malgun Gothic, sans-serif" font-size="28.8" font-weight="700" fill="#14171D">만안구 음식점 및 주점업</text><rect x="470.4" y="518.4" width="63.4" height="32.6" rx="6.72" fill="#E4EAFA"/><text x="483.8" y="542.4" font-family="Noto Sans KR, Malgun Gothic, sans-serif" font-size="17.7" font-weight="700" fill="#1B3A8F">안양</text><text x="96.0" y="577.9" font-family="Noto Sans KR, Malgun Gothic, sans-serif" font-size="22.7" font-weight="400" fill="#5C6675">종사자 8,345명 · 안양시 전체 7,173개 / 21,234명의 44%</text><text x="96.0" y="650.9" font-family="Noto Sans KR, Malgun Gothic, sans-serif" font-size="22.1" font-weight="700" fill="#14171D">매출 100원의 행방</text><rect x="297.6" y="629.8" width="63.4" height="32.6" rx="6.72" fill="#EDF0F5"/><text x="311.0" y="653.8" font-family="Noto Sans KR, Malgun Gothic, sans-serif" font-size="17.7" font-weight="700" fill="#5C6675">전국</text><g transform="translate(96.0,673.9) scale(1.3662)"><rect x="0.0" y="0.0" width="207.6" height="34.0" rx="4" fill="#4A5568"/><text x="103.8" y="52.0" font-family="Noto Sans KR, Malgun Gothic, sans-serif" font-size="11.0" font-weight="700" fill="#5C6675" text-anchor="middle">40.7</text><rect x="209.6" y="0.0" width="72.9" height="34.0" rx="0" fill="#6B7686"/><text x="246.0" y="52.0" font-family="Noto Sans KR, Malgun Gothic, sans-serif" font-size="11.0" font-weight="700" fill="#5C6675" text-anchor="middle">14.3</text><rect x="284.5" y="0.0" width="67.8" height="34.0" rx="0" fill="#8C96A5"/><text x="318.4" y="52.0" font-family="Noto Sans KR, Malgun Gothic, sans-serif" font-size="11.0" font-weight="700" fill="#5C6675" text-anchor="middle">13.3</text><rect x="354.3" y="0.0" width="78.0" height="34.0" rx="0" fill="#AAB2BE"/><text x="393.3" y="52.0" font-family="Noto Sans KR, Malgun Gothic, sans-serif" font-size="11.0" font-weight="700" fill="#5C6675" text-anchor="middle">15.3</text><rect x="434.4" y="0.0" width="39.3" height="34.0" rx="0" fill="#C8CED8"/><rect x="475.6" y="0.0" width="44.4" height="34.0" rx="4" fill="#2A54C6"/><text x="497.8" y="52.0" font-family="Noto Sans KR, Malgun Gothic, sans-serif" font-size="11.0" font-weight="700" fill="#F0501E" text-anchor="middle">8.7</text></g><rect x="96.0" y="796.8" width="16.3" height="16.3" rx="3.456" fill="#4A5568"/><text x="120.0" y="811.2" font-family="Noto Sans KR, Malgun Gothic, sans-serif" font-size="19.6" font-weight="500" fill="#5C6675">식재료비 40.7</text><rect x="281.0" y="796.8" width="16.3" height="16.3" rx="3.456" fill="#6B7686"/><text x="305.0" y="811.2" font-family="Noto Sans KR, Malgun Gothic, sans-serif" font-size="19.6" font-weight="500" fill="#5C6675">고용인 인건비 14.3</text><rect x="515.9" y="796.8" width="16.3" height="16.3" rx="3.456" fill="#8C96A5"/><text x="539.9" y="811.2" font-family="Noto Sans KR, Malgun Gothic, sans-serif" font-size="19.6" font-weight="500" fill="#5C6675">대표자 인건비 13.3</text><rect x="96.0" y="833.3" width="16.3" height="16.3" rx="3.456" fill="#AAB2BE"/><text x="120.0" y="847.7" font-family="Noto Sans KR, Malgun Gothic, sans-serif" font-size="19.6" font-weight="500" fill="#5C6675">기타 15.3</text><rect x="241.8" y="833.3" width="16.3" height="16.3" rx="3.456" fill="#C8CED8"/><text x="265.8" y="847.7" font-family="Noto Sans KR, Malgun Gothic, sans-serif" font-size="19.6" font-weight="500" fill="#5C6675">임차료 7.7</text><rect x="396.5" y="833.3" width="16.3" height="16.3" rx="3.456" fill="#2A54C6"/><text x="420.5" y="847.7" font-family="Noto Sans KR, Malgun Gothic, sans-serif" font-size="19.6" font-weight="500" fill="#5C6675">영업이익 8.7</text><rect x="940.8" y="393.6" width="883.2" height="379.5" rx="13.44" fill="#FFFFFF" stroke="#D9DEE7" stroke-width="1"/><text x="973.4" y="451.2" font-family="Noto Sans KR, Malgun Gothic, sans-serif" font-size="22.1" font-weight="700" fill="#14171D">경영애로</text><rect x="1104.0" y="430.1" width="209.3" height="32.6" rx="6.72" fill="#EDF0F5"/><text x="1117.4" y="454.1" font-family="Noto Sans KR, Malgun Gothic, sans-serif" font-size="17.7" font-weight="700" fill="#5C6675">전국 숙박·음식점업</text><g transform="translate(973.4,480.0) scale(1.3632)"><text x="102.0" y="18.0" font-family="Noto Sans KR, Malgun Gothic, sans-serif" font-size="11.0" font-weight="500" fill="#5C6675" text-anchor="end">원재료비</text><path d="M112.0,0.0L544.0,0.0Q548.0,0.0 548.0,4.0L548.0,24.0Q548.0,28.0 544.0,28.0L112.0,28.0Z" fill="#C3CAD6"/><text x="556.0" y="18.0" font-family="Noto Sans KR, Malgun Gothic, sans-serif" font-size="11.0" font-weight="700" fill="#5C6675">73.9</text><text x="102.0" y="54.0" font-family="Noto Sans KR, Malgun Gothic, sans-serif" font-size="11.0" font-weight="500" fill="#5C6675" text-anchor="end">경쟁심화</text><path d="M112.0,36.0L476.2,36.0Q480.2,36.0 480.2,40.0L480.2,60.0Q480.2,64.0 476.2,64.0L112.0,64.0Z" fill="#C3CAD6"/><text x="488.2" y="54.0" font-family="Noto Sans KR, Malgun Gothic, sans-serif" font-size="11.0" font-weight="700" fill="#5C6675">62.4</text><text x="102.0" y="90.0" font-family="Noto Sans KR, Malgun Gothic, sans-serif" font-size="11.0" font-weight="500" fill="#5C6675" text-anchor="end">임차료</text><path d="M112.0,72.0L301.5,72.0Q305.5,72.0 305.5,76.0L305.5,96.0Q305.5,100.0 301.5,100.0L112.0,100.0Z" fill="#C3CAD6"/><text x="313.5" y="90.0" font-family="Noto Sans KR, Malgun Gothic, sans-serif" font-size="11.0" font-weight="700" fill="#5C6675">32.8</text><text x="102.0" y="126.0" font-family="Noto Sans KR, Malgun Gothic, sans-serif" font-size="11.0" font-weight="500" fill="#5C6675" text-anchor="end">상권쇠퇴</text><path d="M112.0,108.0L276.7,108.0Q280.7,108.0 280.7,112.0L280.7,132.0Q280.7,136.0 276.7,136.0L112.0,136.0Z" fill="#C3CAD6"/><text x="288.7" y="126.0" font-family="Noto Sans KR, Malgun Gothic, sans-serif" font-size="11.0" font-weight="700" fill="#5C6675">28.6</text><text x="102.0" y="162.0" font-family="Noto Sans KR, Malgun Gothic, sans-serif" font-size="11.0" font-weight="500" fill="#5C6675" text-anchor="end">최저임금</text><path d="M112.0,144.0L263.2,144.0Q267.2,144.0 267.2,148.0L267.2,168.0Q267.2,172.0 263.2,172.0L112.0,172.0Z" fill="#C3CAD6"/><text x="275.2" y="162.0" font-family="Noto Sans KR, Malgun Gothic, sans-serif" font-size="11.0" font-weight="700" fill="#5C6675">26.3</text><text x="102.0" y="198.0" font-family="Noto Sans KR, Malgun Gothic, sans-serif" font-size="11.0" font-weight="500" fill="#5C6675" text-anchor="end">판로개척 및 운영</text><path d="M112.0,180.0L128.1,180.0Q132.1,180.0 132.1,184.0L132.1,204.0Q132.1,208.0 128.1,208.0L112.0,208.0Z" fill="#C3CAD6"/><text x="140.1" y="198.0" font-family="Noto Sans KR, Malgun Gothic, sans-serif" font-size="11.0" font-weight="700" fill="#5C6675">3.4</text></g><line x1="96.0" y1="980.2" x2="1824.0" y2="980.2" stroke="#D9DEE7" stroke-width="1"/><text x="96.0" y="1006.1" font-family="Noto Sans KR, Malgun Gothic, sans-serif" font-size="17.7" font-weight="400" fill="#7E8899">사업체수·종사자수: 통계청 전국사업체조사 안양시 집계분(국가승인통계 제210003호) KSIC 56 · 2024년 기준</text><text x="96.0" y="1033.9" font-family="Noto Sans KR, Malgun Gothic, sans-serif" font-size="17.7" font-weight="400" fill="#7E8899">비용구조: 농림축산식품부 「2025년 외식업체 경영실태 조사」(2024년 재무기준, 표본 3,138개)  |  경영애로: 중소벤처기업부 「2024년 기준 소상공인실태조사」 숙박·음식점업, 복수응답</text></svg>