<svg xmlns="http://www.w3.org/2000/svg" xmlns:xlink="http://www.w3.org/1999/xlink" width="2608" height="1120" viewBox="0 0 2608 1120"><rect x="0" y="0" width="2608" height="1120" rx="0" fill="#FFFFFF"/><text x="64" y="75.6" font-family="Pretendard" font-size="26" font-weight="600" letter-spacing="-0.52" fill="#0F172A" text-anchor="start">05 · Final UI — 첫 분석</text><text x="64" y="107.4" font-family="Pretendard" font-size="14" font-weight="400" letter-spacing="-0.28" fill="#475569" text-anchor="start">입력은 한 화면에서 차례로 펼치고, 진행은 받은 단계만 쌓는다. 첫 저장은 별도 완료 화면</text><g transform="translate(64 200)"><g id="Screen/Input-1-Name"><text x="0" y="-24.6" font-family="Pretendard" font-size="14" font-weight="700" letter-spacing="-0.28" fill="#0F172A" text-anchor="start">① 가게 이름</text><clipPath id="clip-Input-1-Name"><rect x="0" y="0" width="360" height="800" rx="24" fill="none"/></clipPath><g clip-path="url(#clip-Input-1-Name)"><rect x="0" y="0" width="360" height="800" rx="0" fill="#F5F7FA"/><rect x="0" y="0" width="360" height="32" rx="0" fill="#F5F7FA"/><g id="Header"><rect x="0" y="0" width="360" height="88" rx="0" fill="#FFFFFF"/><line x1="0" y1="88" x2="360" y2="88" stroke="#E2E8F0" stroke-width="1"/><text x="16" y="61.4" font-family="Pretendard" font-size="14" font-weight="600" letter-spacing="-0.28" fill="#0F172A" text-anchor="start">분석하기</text></g><g id="StepIndicator"><rect x="16" y="108" width="104" height="4" rx="9999" fill="#E03E16"/><text x="16" y="131.4" font-family="Pretendard" font-size="14" font-weight="600" letter-spacing="-0.28" fill="#0F172A" text-anchor="start">가게 이름</text><rect x="128" y="108" width="104" height="4" rx="9999" fill="#E2E8F0"/><text x="128" y="129.2" font-family="Pretendard" font-size="12" font-weight="400" letter-spacing="-0.24" fill="#475569" text-anchor="start">업종</text><rect x="240" y="108" width="104" height="4" rx="9999" fill="#E2E8F0"/><text x="240" y="129.2" font-family="Pretendard" font-size="12" font-weight="400" letter-spacing="-0.24" fill="#475569" text-anchor="start">네이버 가게 주소</text></g><g id="PageTitle"><text x="16" y="183.6" font-family="Pretendard" font-size="26" font-weight="600" letter-spacing="-0.52" fill="#0F172A" text-anchor="start">가게 이름을 알려 주세요</text></g><rect x="16" y="219" width="328" height="120" rx="24" fill="#FFFFFF" stroke="#E2E8F0" stroke-width="1"/><g id="TextField/focus/가게 이름"><text x="36" y="254.4" font-family="Pretendard" font-size="14" font-weight="600" letter-spacing="-0.28" fill="#191F28" text-anchor="start">가게 이름</text><rect x="36" y="268" width="288" height="52" rx="12" fill="#FFFFFF" stroke="#E03E16" stroke-width="2"/><text x="52" y="299.6" font-family="Pretendard" font-size="16" font-weight="400" letter-spacing="-0.32" fill="#475569" text-anchor="start">예: 영등원조쌈밥</text></g><g id="Button/Primary/다음"><rect x="16" y="355" width="328" height="52" rx="12" fill="#002B7A"/><text x="180" y="386.6" font-family="Pretendard" font-size="16" font-weight="600" letter-spacing="-0.32" fill="#FFFFFF" text-anchor="middle">다음</text></g><text x="16" y="19.4" font-family="Pretendard" font-size="14" font-weight="600" letter-spacing="-0.28" fill="#191F28" text-anchor="start">9:41</text><rect x="312" y="10" width="22" height="11" rx="3" fill="none" stroke="#191F28" stroke-width="1"/><rect x="314" y="12" width="16" height="7" rx="1.5" fill="#191F28"/></g><rect x="0" y="0" width="360" height="800" rx="24" fill="none" stroke="#CBD5E1" stroke-width="2"/></g></g><g transform="translate(488 200)"><g id="Screen/Input-2-Category"><text x="0" y="-24.6" font-family="Pretendard" font-size="14" font-weight="700" letter-spacing="-0.28" fill="#0F172A" text-anchor="start">② 업종 — 칩을 고르면 바로 다음</text><clipPath id="clip-Input-2-Category"><rect x="0" y="0" width="360" height="800" rx="24" fill="none"/></clipPath><g clip-path="url(#clip-Input-2-Category)"><rect x="0" y="0" width="360" height="800" rx="0" fill="#F5F7FA"/><rect x="0" y="0" width="360" height="32" rx="0" fill="#F5F7FA"/><g id="Header 2"><rect x="0" y="0" width="360" height="88" rx="0" fill="#FFFFFF"/><line x1="0" y1="88" x2="360" y2="88" stroke="#E2E8F0" stroke-width="1"/><text x="16" y="61.4" font-family="Pretendard" font-size="14" font-weight="600" letter-spacing="-0.28" fill="#0F172A" text-anchor="start">분석하기</text></g><g id="StepIndicator 2"><rect x="16" y="108" width="104" height="4" rx="9999" fill="#002B7A"/><text x="16" y="129.2" font-family="Pretendard" font-size="12" font-weight="400" letter-spacing="-0.24" fill="#475569" text-anchor="start">✓ 가게 이름</text><rect x="128" y="108" width="104" height="4" rx="9999" fill="#E03E16"/><text x="128" y="131.4" font-family="Pretendard" font-size="14" font-weight="600" letter-spacing="-0.28" fill="#0F172A" text-anchor="start">업종</text><rect x="240" y="108" width="104" height="4" rx="9999" fill="#E2E8F0"/><text x="240" y="129.2" font-family="Pretendard" font-size="12" font-weight="400" letter-spacing="-0.24" fill="#475569" text-anchor="start">네이버 가게 주소</text></g><g id="PageTitle 2"><text x="16" y="183.6" font-family="Pretendard" font-size="26" font-weight="600" letter-spacing="-0.52" fill="#0F172A" text-anchor="start">어떤 업종인가요?</text></g><rect x="16" y="219" width="328" height="238" rx="24" fill="#FFFFFF" stroke="#E2E8F0" stroke-width="1"/><g id="InputDoneRow/가게 이름"><text x="36" y="252.2" font-family="Pretendard" font-size="12" font-weight="400" letter-spacing="-0.24" fill="#475569" text-anchor="start">가게 이름</text><text x="36" y="274.4" font-family="Pretendard" font-size="14" font-weight="700" letter-spacing="-0.28" fill="#191F28" text-anchor="start">영등원조쌈밥</text><text x="324" y="264.4" font-family="Pretendard" font-size="14" font-weight="600" letter-spacing="-0.28" fill="#002B7A" text-anchor="end">수정</text><line x1="36" y1="295" x2="324" y2="295" stroke="#E2E8F0" stroke-width="1"/></g><text x="36" y="326.4" font-family="Pretendard" font-size="14" font-weight="600" letter-spacing="-0.28" fill="#191F28" text-anchor="start">업종</text><g id="Chip/Default/한식 2"><rect x="36" y="341" width="60" height="44" rx="12" fill="#FFFFFF" stroke="#64748B" stroke-width="1"/><text x="52" y="367.9" font-family="Pretendard" font-size="14" font-weight="600" letter-spacing="-0.28" fill="#191F28" text-anchor="start">한식</text></g><g id="Chip/Default/중식 2"><rect x="104" y="341" width="60" height="44" rx="12" fill="#FFFFFF" stroke="#64748B" stroke-width="1"/><text x="120" y="367.9" font-family="Pretendard" font-size="14" font-weight="600" letter-spacing="-0.28" fill="#191F28" text-anchor="start">중식</text></g><g id="Chip/Default/일식 2"><rect x="172" y="341" width="60" height="44" rx="12" fill="#FFFFFF" stroke="#64748B" stroke-width="1"/><text x="188" y="367.9" font-family="Pretendard" font-size="14" font-weight="600" letter-spacing="-0.28" fill="#191F28" text-anchor="start">일식</text></g><g id="Chip/Default/양식 2"><rect x="240" y="341" width="60" height="44" rx="12" fill="#FFFFFF" stroke="#64748B" stroke-width="1"/><text x="256" y="367.9" font-family="Pretendard" font-size="14" font-weight="600" letter-spacing="-0.28" fill="#191F28" text-anchor="start">양식</text></g><g id="Chip/Default/카페/디저트 2"><rect x="36" y="393" width="110" height="44" rx="12" fill="#FFFFFF" stroke="#64748B" stroke-width="1"/><text x="52" y="419.9" font-family="Pretendard" font-size="14" font-weight="600" letter-spacing="-0.28" fill="#191F28" text-anchor="start">카페/디저트</text></g><g id="Chip/Default/주점 2"><rect x="154" y="393" width="60" height="44" rx="12" fill="#FFFFFF" stroke="#64748B" stroke-width="1"/><text x="170" y="419.9" font-family="Pretendard" font-size="14" font-weight="600" letter-spacing="-0.28" fill="#191F28" text-anchor="start">주점</text></g><g id="Chip/Default/기타 2"><rect x="222" y="393" width="60" height="44" rx="12" fill="#FFFFFF" stroke="#64748B" stroke-width="1"/><text x="238" y="419.9" font-family="Pretendard" font-size="14" font-weight="600" letter-spacing="-0.28" fill="#191F28" text-anchor="start">기타</text></g><text x="16" y="19.4" font-family="Pretendard" font-size="14" font-weight="600" letter-spacing="-0.28" fill="#191F28" text-anchor="start">9:41</text><rect x="312" y="10" width="22" height="11" rx="3" fill="none" stroke="#191F28" stroke-width="1"/><rect x="314" y="12" width="16" height="7" rx="1.5" fill="#191F28"/></g><rect x="0" y="0" width="360" height="800" rx="24" fill="none" stroke="#CBD5E1" stroke-width="2"/></g></g><g transform="translate(912 200)"><g id="Screen/Input-3-Url"><text x="0" y="-24.6" font-family="Pretendard" font-size="14" font-weight="700" letter-spacing="-0.28" fill="#0F172A" text-anchor="start">③ 네이버 가게 URL</text><clipPath id="clip-Input-3-Url"><rect x="0" y="0" width="360" height="800" rx="24" fill="none"/></clipPath><g clip-path="url(#clip-Input-3-Url)"><rect x="0" y="0" width="360" height="800" rx="0" fill="#F5F7FA"/><rect x="0" y="0" width="360" height="32" rx="0" fill="#F5F7FA"/><g id="Header 3"><rect x="0" y="0" width="360" height="88" rx="0" fill="#FFFFFF"/><line x1="0" y1="88" x2="360" y2="88" stroke="#E2E8F0" stroke-width="1"/><text x="16" y="61.4" font-family="Pretendard" font-size="14" font-weight="600" letter-spacing="-0.28" fill="#0F172A" text-anchor="start">분석하기</text></g><g id="StepIndicator 3"><rect x="16" y="108" width="104" height="4" rx="9999" fill="#002B7A"/><text x="16" y="129.2" font-family="Pretendard" font-size="12" font-weight="400" letter-spacing="-0.24" fill="#475569" text-anchor="start">✓ 가게 이름</text><rect x="128" y="108" width="104" height="4" rx="9999" fill="#002B7A"/><text x="128" y="129.2" font-family="Pretendard" font-size="12" font-weight="400" letter-spacing="-0.24" fill="#475569" text-anchor="start">✓ 업종</text><rect x="240" y="108" width="104" height="4" rx="9999" fill="#E03E16"/><text x="240" y="131.4" font-family="Pretendard" font-size="14" font-weight="600" letter-spacing="-0.28" fill="#0F172A" text-anchor="start">네이버 가게 주소</text></g><g id="PageTitle 3"><text x="16" y="183.6" font-family="Pretendard" font-size="26" font-weight="600" letter-spacing="-0.52" fill="#0F172A" text-anchor="start">네이버 가게 주소를</text><text x="16" y="220.6" font-family="Pretendard" font-size="26" font-weight="600" letter-spacing="-0.52" fill="#0F172A" text-anchor="start">붙여 넣어 주세요</text></g><rect x="16" y="256" width="328" height="264" rx="24" fill="#FFFFFF" stroke="#E2E8F0" stroke-width="1"/><g id="InputDoneRow/가게 이름 2"><text x="36" y="289.2" font-family="Pretendard" font-size="12" font-weight="400" letter-spacing="-0.24" fill="#475569" text-anchor="start">가게 이름</text><text x="36" y="311.4" font-family="Pretendard" font-size="14" font-weight="700" letter-spacing="-0.28" fill="#191F28" text-anchor="start">영등원조쌈밥</text><text x="324" y="301.4" font-family="Pretendard" font-size="14" font-weight="600" letter-spacing="-0.28" fill="#002B7A" text-anchor="end">수정</text><line x1="36" y1="332" x2="324" y2="332" stroke="#E2E8F0" stroke-width="1"/></g><g id="InputDoneRow/업종"><text x="36" y="361.2" font-family="Pretendard" font-size="12" font-weight="400" letter-spacing="-0.24" fill="#475569" text-anchor="start">업종</text><text x="36" y="383.4" font-family="Pretendard" font-size="14" font-weight="700" letter-spacing="-0.28" fill="#191F28" text-anchor="start">한식</text><text x="324" y="373.4" font-family="Pretendard" font-size="14" font-weight="600" letter-spacing="-0.28" fill="#002B7A" text-anchor="end">수정</text><line x1="36" y1="404" x2="324" y2="404" stroke="#E2E8F0" stroke-width="1"/></g><g id="TextField/default/네이버 가게 URL"><text x="36" y="435.4" font-family="Pretendard" font-size="14" font-weight="600" letter-spacing="-0.28" fill="#191F28" text-anchor="start">네이버 가게 URL</text><rect x="36" y="449" width="288" height="52" rx="12" fill="#FFFFFF" stroke="#64748B" stroke-width="1"/><text x="52" y="480.6" font-family="Pretendard" font-size="16" font-weight="400" letter-spacing="-0.32" fill="#191F28" text-anchor="start">https://naver.me/example</text></g><g id="Button/Primary/분석하기"><rect x="16" y="536" width="328" height="52" rx="12" fill="#002B7A"/><text x="180" y="567.6" font-family="Pretendard" font-size="16" font-weight="600" letter-spacing="-0.32" fill="#FFFFFF" text-anchor="middle">분석하기</text></g><text x="16" y="19.4" font-family="Pretendard" font-size="14" font-weight="600" letter-spacing="-0.28" fill="#191F28" text-anchor="start">9:41</text><rect x="312" y="10" width="22" height="11" rx="3" fill="none" stroke="#191F28" stroke-width="1"/><rect x="314" y="12" width="16" height="7" rx="1.5" fill="#191F28"/></g><rect x="0" y="0" width="360" height="800" rx="24" fill="none" stroke="#CBD5E1" stroke-width="2"/></g></g><g transform="translate(1336 200)"><g id="Screen/Progress"><text x="0" y="-24.6" font-family="Pretendard" font-size="14" font-weight="700" letter-spacing="-0.28" fill="#0F172A" text-anchor="start">④ 진행 목록</text><clipPath id="clip-Progress"><rect x="0" y="0" width="360" height="800" rx="24" fill="none"/></clipPath><g clip-path="url(#clip-Progress)"><rect x="0" y="0" width="360" height="800" rx="0" fill="#F5F7FA"/><rect x="0" y="0" width="360" height="32" rx="0" fill="#F5F7FA"/><g id="Header 4"><rect x="0" y="0" width="360" height="88" rx="0" fill="#FFFFFF"/><line x1="0" y1="88" x2="360" y2="88" stroke="#E2E8F0" stroke-width="1"/><text x="16" y="61.4" font-family="Pretendard" font-size="14" font-weight="600" letter-spacing="-0.28" fill="#0F172A" text-anchor="start">분석하기</text></g><g id="PageTitle 4"><text x="16" y="135.6" font-family="Pretendard" font-size="26" font-weight="600" letter-spacing="-0.52" fill="#0F172A" text-anchor="start">리뷰를 읽고 있어요</text><text x="16" y="170.6" font-family="Pretendard" font-size="16" font-weight="400" letter-spacing="-0.32" fill="#475569" text-anchor="start">영등원조쌈밥 · 한식</text></g><rect x="16" y="196" width="328" height="56" rx="12" fill="#FFFFFF" stroke="#E2E8F0" stroke-width="1"/><text x="32" y="227.4" font-family="Pretendard" font-size="14" font-weight="400" letter-spacing="-0.28" fill="#191F28" text-anchor="start">영등원조쌈밥 · 한식</text><text x="328" y="227.4" font-family="Pretendard" font-size="14" font-weight="600" letter-spacing="-0.28" fill="#002B7A" text-anchor="end">입력 보기</text><rect x="16" y="268" width="328" height="170" rx="24" fill="#FFFFFF" stroke="#E2E8F0" stroke-width="1"/><g id="ProgressStep/done"><circle cx="48" cy="278" r="12" fill="#D1FAE5"/><text x="48" y="282.9" font-family="Pretendard" font-size="14" font-weight="700" letter-spacing="-0.28" fill="#059669" text-anchor="middle">✓</text><text x="76" y="283.6" font-family="Pretendard" font-size="16" font-weight="400" letter-spacing="-0.32" fill="#475569" text-anchor="start">분석 준비 완료</text></g><g id="ProgressStep/running"><circle cx="48" cy="326" r="10" fill="none" stroke="#E2E8F0" stroke-width="3"/><path d="M 48 316 A 10 10 0 0 1 58 326" fill="none" stroke="#002B7A" stroke-width="3" stroke-linecap="round"/><text x="76" y="332.3" font-family="Pretendard" font-size="18" font-weight="700" letter-spacing="-0.36" fill="#191F28" text-anchor="start">네이버 리뷰 수집 중</text></g><text x="36" y="379.4" font-family="Pretendard" font-size="14" font-weight="400" letter-spacing="-0.28" fill="#475569" text-anchor="start">단계가 바뀌면 아래에 이어서 보여드려요.</text><text x="16" y="19.4" font-family="Pretendard" font-size="14" font-weight="600" letter-spacing="-0.28" fill="#191F28" text-anchor="start">9:41</text><rect x="312" y="10" width="22" height="11" rx="3" fill="none" stroke="#191F28" stroke-width="1"/><rect x="314" y="12" width="16" height="7" rx="1.5" fill="#191F28"/></g><rect x="0" y="0" width="360" height="800" rx="24" fill="none" stroke="#CBD5E1" stroke-width="2"/></g></g><g transform="translate(1760 200)"><g id="Screen/FirstSaved"><text x="0" y="-24.6" font-family="Pretendard" font-size="14" font-weight="700" letter-spacing="-0.28" fill="#0F172A" text-anchor="start">⑤ 첫 저장 완료 → 결과 보기</text><clipPath id="clip-FirstSaved"><rect x="0" y="0" width="360" height="800" rx="24" fill="none"/></clipPath><g clip-path="url(#clip-FirstSaved)"><rect x="0" y="0" width="360" height="800" rx="0" fill="#F5F7FA"/><rect x="0" y="0" width="360" height="32" rx="0" fill="#F5F7FA"/><g id="Header 5"><rect x="0" y="0" width="360" height="88" rx="0" fill="#FFFFFF"/><line x1="0" y1="88" x2="360" y2="88" stroke="#E2E8F0" stroke-width="1"/><text x="16" y="63.8" font-family="Pretendard" font-size="18" font-weight="700" letter-spacing="-0.36" fill="#002B7A" text-anchor="start">PULSE</text></g><circle cx="180" cy="236" r="40" fill="#FF5A36"/><text x="180" y="253.7" font-family="Pretendard" font-size="32" font-weight="600" letter-spacing="-0.64" fill="#191F28" text-anchor="middle">✓</text><text x="180" y="319.2" font-family="Pretendard" font-size="22" font-weight="600" letter-spacing="-0.44" fill="#0F172A" text-anchor="middle">첫 분석 결과를 저장했어요</text><text x="180" y="353.6" font-family="Pretendard" font-size="16" font-weight="400" letter-spacing="-0.32" fill="#475569" text-anchor="middle">홈에서 언제든 다시 볼 수 있어요.</text><rect x="16" y="376" width="328" height="76" rx="12" fill="#FFFFFF" stroke="#E2E8F0" stroke-width="1"/><text x="180" y="405.4" font-family="Pretendard" font-size="14" font-weight="700" letter-spacing="-0.28" fill="#191F28" text-anchor="middle">영등원조쌈밥</text><text x="180" y="429.4" font-family="Pretendard" font-size="14" font-weight="400" letter-spacing="-0.28" fill="#475569" text-anchor="middle">분석에 쓴 리뷰 59건 · 손님 유형 3개</text><g id="Button/Primary/결과 보기"><rect x="16" y="472" width="328" height="52" rx="12" fill="#002B7A"/><text x="180" y="503.6" font-family="Pretendard" font-size="16" font-weight="600" letter-spacing="-0.32" fill="#FFFFFF" text-anchor="middle">결과 보기</text></g><text x="16" y="19.4" font-family="Pretendard" font-size="14" font-weight="600" letter-spacing="-0.28" fill="#191F28" text-anchor="start">9:41</text><rect x="312" y="10" width="22" height="11" rx="3" fill="none" stroke="#191F28" stroke-width="1"/><rect x="314" y="12" width="16" height="7" rx="1.5" fill="#191F28"/></g><rect x="0" y="0" width="360" height="800" rx="24" fill="none" stroke="#CBD5E1" stroke-width="2"/></g></g><g transform="translate(2184 200)"><g id="Screen/Home"><text x="0" y="-24.6" font-family="Pretendard" font-size="14" font-weight="700" letter-spacing="-0.28" fill="#0F172A" text-anchor="start">⑥ 홈 (저장 결과)</text><clipPath id="clip-Home"><rect x="0" y="0" width="360" height="800" rx="24" fill="none"/></clipPath><g clip-path="url(#clip-Home)"><rect x="0" y="0" width="360" height="800" rx="0" fill="#F5F7FA"/><rect x="0" y="0" width="360" height="32" rx="0" fill="#F5F7FA"/><g id="Header 6"><rect x="0" y="0" width="360" height="88" rx="0" fill="#FFFFFF"/><line x1="0" y1="88" x2="360" y2="88" stroke="#E2E8F0" stroke-width="1"/><text x="16" y="63.8" font-family="Pretendard" font-size="18" font-weight="700" letter-spacing="-0.36" fill="#002B7A" text-anchor="start">PULSE</text><rect x="242.16" y="46" width="101.84" height="28" rx="9999" fill="#F1F5F9"/><text x="332" y="64.4" font-family="Pretendard" font-size="14" font-weight="400" letter-spacing="-0.28" fill="#475569" text-anchor="end">저장된 결과</text></g><text x="16" y="135.6" font-family="Pretendard" font-size="26" font-weight="600" letter-spacing="-0.52" fill="#0F172A" text-anchor="start">영등원조쌈밥</text><g id="Podium"><text x="16" y="157.2" font-family="Pretendard" font-size="12" font-weight="400" letter-spacing="-0.24" fill="#475569" text-anchor="start">리뷰 수 순서</text><text x="16" y="187.0" font-family="Pretendard" font-size="20" font-weight="600" letter-spacing="-0.4" fill="#0F172A" text-anchor="start">리뷰에 많이 나온 손님 TOP3</text><rect x="16" y="204" width="328" height="306" rx="24" fill="#FFFFFF" stroke="#E2E8F0" stroke-width="1"/><g id="PodiumSlot/Runner"><g transform="translate(41.33333333333334 238) scale(1.25)"><clipPath id="guest-clip-6"><circle cx="32" cy="32" r="32"/></clipPath><g clip-path="url(#guest-clip-6)"><circle cx="32" cy="32" r="32" fill="#FBE3DC"/><path d="M9 66c1-12 10-19.5 23-19.5S54 54 55 66Z" fill="#C8644A"/><circle cx="32" cy="12.2" r="5.6" fill="#5A3A2A"/><path d="M28 36h8v9a4 4 0 0 1-8 0Z" fill="#EBC3A0"/><circle cx="21.2" cy="29.5" r="2.6" fill="#EBC3A0"/><circle cx="42.8" cy="29.5" r="2.6" fill="#EBC3A0"/><ellipse cx="32" cy="28" rx="11" ry="12.4" fill="#F7D6B8"/><path d="M20.4 29c-1.8-10.2 4.6-16.4 11.6-16.4s13.4 6.2 11.6 16.4c-2.6-5-6.4-8.6-12-9.4-1.6 3.6-6.4 7.2-11.2 9.4Z" fill="#5A3A2A"/><path d="M25.6 26q1.8-.8 3.6 0M34.8 26q1.8-.8 3.6 0" fill="none" stroke="#5A3A2A" stroke-width="1.4" stroke-linecap="round" stroke-linejoin="round"/><path d="M25.9 30.2q1.5-1.5 3 0M35.1 30.2q1.5-1.5 3 0" fill="none" stroke="#2B2622" stroke-width="1.5" stroke-linecap="round" stroke-linejoin="round"/><path d="M31.4 33q.6 1.1 1.4.2" fill="none" stroke="#D39A76" stroke-width="1.2" stroke-linecap="round" stroke-linejoin="round"/><circle cx="24.6" cy="34.6" r="2" fill="#F2A08C" opacity="0.45"/><circle cx="39.4" cy="34.6" r="2" fill="#F2A08C" opacity="0.45"/><path d="M29.6 36.2q2.4 2 4.8 0" fill="none" stroke="#8A4B3A" stroke-width="1.4" stroke-linecap="round" stroke-linejoin="round"/><circle cx="21" cy="33.6" r="1.3" fill="#E8B04A"/><circle cx="43" cy="33.6" r="1.3" fill="#E8B04A"/></g></g><text x="81.33333333333334" y="339.4" font-family="Pretendard" font-size="14" font-weight="600" letter-spacing="-0.28" fill="#0F172A" text-anchor="middle">매운맛</text><text x="81.33333333333334" y="360.4" font-family="Pretendard" font-size="14" font-weight="600" letter-spacing="-0.28" fill="#0F172A" text-anchor="middle">조절형</text><text x="81.33333333333334" y="379.2" font-family="Pretendard" font-size="12" font-weight="400" letter-spacing="-0.24" fill="#475569" text-anchor="middle">리뷰 19건</text><path d="M 36.00000000000001 452 L 36.00000000000001 408 Q 36.00000000000001 396 48.00000000000001 396 L 114.66666666666669 396 Q 126.66666666666669 396 126.66666666666669 408 L 126.66666666666669 452 Z" fill="#F1F5F9"/><text x="81.33333333333334" y="431.0" font-family="Pretendard" font-size="20" font-weight="600" letter-spacing="-0.4" fill="#002B7A" text-anchor="middle">2</text></g><g id="PodiumSlot/First"><g transform="translate(132.00000000000003 219) scale(1.5)"><clipPath id="guest-clip-7"><circle cx="32" cy="32" r="32"/></clipPath><g clip-path="url(#guest-clip-7)"><circle cx="32" cy="32" r="32" fill="#DCE7F7"/><path d="M9 66c1-12 10-19.5 23-19.5S54 54 55 66Z" fill="#6E7B5B"/><path d="M26 46.8l6 5.2 6-5.2" fill="none" stroke="#56613F" stroke-width="1.6" stroke-linecap="round" stroke-linejoin="round"/><path d="M28 36h8v9a4 4 0 0 1-8 0Z" fill="#EBC3A0"/><circle cx="21.2" cy="29.5" r="2.6" fill="#EBC3A0"/><circle cx="42.8" cy="29.5" r="2.6" fill="#EBC3A0"/><ellipse cx="32" cy="28" rx="11" ry="12.4" fill="#F7D6B8"/><path d="M20.6 27.6c-1.4-9.4 4.6-15.6 11.6-15.6 7.8 0 12.6 5.4 11.8 13.4-1.6-3.8-5.2-6.4-10.4-6.8-2.6 3-7.6 5.6-13 9Z" fill="#2B2622"/><path d="M25.4 24.6q2-.9 4 0M34.6 24.6q2-.9 4 0" fill="none" stroke="#2B2622" stroke-width="1.4" stroke-linecap="round" stroke-linejoin="round"/><ellipse cx="27.4" cy="30.2" rx="1.35" ry="1.7" fill="#2B2622"/><ellipse cx="36.6" cy="30.2" rx="1.35" ry="1.7" fill="#2B2622"/><path d="M31.4 33q.6 1.1 1.4.2" fill="none" stroke="#D39A76" stroke-width="1.2" stroke-linecap="round" stroke-linejoin="round"/><circle cx="24.6" cy="34.6" r="2" fill="#F2A08C" opacity="0.45"/><circle cx="39.4" cy="34.6" r="2" fill="#F2A08C" opacity="0.45"/><path d="M29.8 36.4q2.2 1.5 4.4 0" fill="none" stroke="#8A4B3A" stroke-width="1.4" stroke-linecap="round" stroke-linejoin="round"/><circle cx="27.4" cy="29.8" r="3.7" fill="#FFFFFF" fill-opacity="0.25" stroke="#2B2622" stroke-width="1.4" stroke-linecap="round" stroke-linejoin="round"/><circle cx="36.6" cy="29.8" r="3.7" fill="#FFFFFF" fill-opacity="0.25" stroke="#2B2622" stroke-width="1.4" stroke-linecap="round" stroke-linejoin="round"/><path d="M31.1 29.5q.9-.7 1.8 0" fill="none" stroke="#2B2622" stroke-width="1.4" stroke-linecap="round" stroke-linejoin="round"/><path d="M23.7 29.3 20.4 28.1M40.3 29.3l3.3-1.2" fill="none" stroke="#2B2622" stroke-width="1.4" stroke-linecap="round" stroke-linejoin="round"/></g></g><circle cx="180.00000000000003" cy="267" r="51" fill="none" stroke="#002B7A" stroke-width="2"/><text x="180.00000000000003" y="336.4" font-family="Pretendard" font-size="14" font-weight="600" letter-spacing="-0.28" fill="#0F172A" text-anchor="middle">추억 재방문형</text><text x="180.00000000000003" y="355.2" font-family="Pretendard" font-size="12" font-weight="400" letter-spacing="-0.24" fill="#475569" text-anchor="middle">리뷰 24건</text><path d="M 134.66666666666669 452 L 134.66666666666669 384 Q 134.66666666666669 372 146.66666666666669 372 L 213.33333333333337 372 Q 225.33333333333337 372 225.33333333333337 384 L 225.33333333333337 452 Z" fill="#002B7A"/><text x="180.00000000000003" y="401.0" font-family="Pretendard" font-size="20" font-weight="600" letter-spacing="-0.4" fill="#FFFFFF" text-anchor="middle">1</text><text x="180.00000000000003" y="423.2" font-family="Pretendard" font-size="12" font-weight="400" letter-spacing="-0.24" fill="#FFFFFF" text-anchor="middle">보는 중</text></g><g id="PodiumSlot/Runner 2"><g transform="translate(238.66666666666669 246) scale(1.25)"><clipPath id="guest-clip-8"><circle cx="32" cy="32" r="32"/></clipPath><g clip-path="url(#guest-clip-8)"><circle cx="32" cy="32" r="32" fill="#E2ECE4"/><path d="M9 66c1-12 10-19.5 23-19.5S54 54 55 66Z" fill="#72819E"/><path d="M28 47.5v6M36 47.5v6" fill="none" stroke="#FFFFFF" stroke-width="1.4" stroke-linecap="round" stroke-linejoin="round"/><path d="M28 36h8v9a4 4 0 0 1-8 0Z" fill="#EBC3A0"/><circle cx="21.2" cy="29.5" r="2.6" fill="#EBC3A0"/><circle cx="42.8" cy="29.5" r="2.6" fill="#EBC3A0"/><ellipse cx="32" cy="28" rx="11" ry="12.4" fill="#F7D6B8"/><path d="M21.2 28.4c-.6-2.6-.4-4.6.6-6.2h20.4c1 1.6 1.2 3.6.6 6.2-.8-2-2-3.2-3.6-3.6H24.8c-1.6.4-2.8 1.6-3.6 3.6Z" fill="#3B2F2A"/><path d="M20.6 22.6c0-6.6 5-11 11.4-11s11.4 4.4 11.4 11Z" fill="#002B7A"/><path d="M20.6 22.4h19.8c3 0 5.6.8 6.8 2.4H20.6Z" fill="#0B1E4F"/><path d="M25.2 27q2.1-.5 4.2.2M34.6 27.2q2.1-.7 4.2-.2" fill="none" stroke="#3B2F2A" stroke-width="1.8" stroke-linecap="round" stroke-linejoin="round"/><ellipse cx="27.4" cy="30.2" rx="1.35" ry="1.7" fill="#2B2622"/><ellipse cx="36.6" cy="30.2" rx="1.35" ry="1.7" fill="#2B2622"/><path d="M31.4 33q.6 1.1 1.4.2" fill="none" stroke="#D39A76" stroke-width="1.2" stroke-linecap="round" stroke-linejoin="round"/><circle cx="24.6" cy="34.6" r="2" fill="#F2A08C" opacity="0.45"/><circle cx="39.4" cy="34.6" r="2" fill="#F2A08C" opacity="0.45"/><path d="M30.2 36.6h3.6" fill="none" stroke="#8A4B3A" stroke-width="1.4" stroke-linecap="round" stroke-linejoin="round"/></g></g><text x="278.6666666666667" y="347.4" font-family="Pretendard" font-size="14" font-weight="600" letter-spacing="-0.28" fill="#0F172A" text-anchor="middle">혼밥</text><text x="278.6666666666667" y="368.4" font-family="Pretendard" font-size="14" font-weight="600" letter-spacing="-0.28" fill="#0F172A" text-anchor="middle">안심형</text><text x="278.6666666666667" y="387.2" font-family="Pretendard" font-size="12" font-weight="400" letter-spacing="-0.24" fill="#475569" text-anchor="middle">리뷰 16건</text><path d="M 233.33333333333334 452 L 233.33333333333334 416 Q 233.33333333333334 404 245.33333333333334 404 L 312 404 Q 324 404 324 416 L 324 452 Z" fill="#F1F5F9"/><text x="278.6666666666667" y="435.0" font-family="Pretendard" font-size="20" font-weight="600" letter-spacing="-0.4" fill="#002B7A" text-anchor="middle">3</text></g><text x="36" y="497.2" font-family="Pretendard" font-size="12" font-weight="400" letter-spacing="-0.24" fill="#475569" text-anchor="start">그림은 AI로 만든 가상 이미지예요.</text></g><g id="AnalysisInfo"><text x="16" y="539.0" font-family="Pretendard" font-size="20" font-weight="600" letter-spacing="-0.4" fill="#0F172A" text-anchor="start">이 결과는 이렇게 만들었어요</text><rect x="16" y="548" width="328" height="150" rx="24" fill="#FFFFFF" stroke="#E2E8F0" stroke-width="1"/><text x="36" y="575.4" font-family="Pretendard" font-size="14" font-weight="600" letter-spacing="-0.28" fill="#475569" text-anchor="start">네이버 공개 리뷰 기준</text><text x="36" y="605.2" font-family="Pretendard" font-size="12" font-weight="400" letter-spacing="-0.24" fill="#475569" text-anchor="start">분석한 리뷰</text><text x="36" y="625.4" font-family="Pretendard" font-size="14" font-weight="700" letter-spacing="-0.28" fill="#0F172A" text-anchor="start">59건</text><text x="132" y="605.2" font-family="Pretendard" font-size="12" font-weight="400" letter-spacing="-0.24" fill="#475569" text-anchor="start">수집</text><text x="132" y="625.4" font-family="Pretendard" font-size="14" font-weight="700" letter-spacing="-0.28" fill="#0F172A" text-anchor="start">2026.09.18</text><line x1="122" y1="592" x2="122" y2="634" stroke="#E2E8F0" stroke-width="1"/><text x="228" y="605.2" font-family="Pretendard" font-size="12" font-weight="400" letter-spacing="-0.24" fill="#475569" text-anchor="start">분석 완료</text><text x="228" y="625.4" font-family="Pretendard" font-size="14" font-weight="700" letter-spacing="-0.28" fill="#0F172A" text-anchor="start">2026.09.18</text><line x1="218" y1="592" x2="218" y2="634" stroke="#E2E8F0" stroke-width="1"/><text x="36" y="659.4" font-family="Pretendard" font-size="14" font-weight="400" letter-spacing="-0.28" fill="#475569" text-anchor="start">모은 리뷰 84건 가운데 겹치거나</text><text x="36" y="680.4" font-family="Pretendard" font-size="14" font-weight="400" letter-spacing="-0.28" fill="#475569" text-anchor="start">내용이 없는 리뷰를 빼고 59건을 썼어요.</text></g><g id="BottomNavigation/home"><rect x="0" y="728" width="360" height="72" rx="0" fill="#FFFFFF"/><line x1="0" y1="728" x2="360" y2="728" stroke="#E2E8F0" stroke-width="1"/><text x="60" y="783.2" font-family="Pretendard" font-size="12" font-weight="400" letter-spacing="-0.24" fill="#002B7A" text-anchor="middle">홈</text><g transform="translate(48 738)"><path d="M3.5 10.2 12 3.6l8.5 6.6V19a1.5 1.5 0 0 1-1.5 1.5h-3.8v-5.6H8.8v5.6H5A1.5 1.5 0 0 1 3.5 19v-8.8Z" fill="none" stroke="#002B7A" stroke-width="2" stroke-linecap="round" stroke-linejoin="round"/></g><circle cx="180" cy="738" r="28" fill="#FF5A36" stroke="#FFFFFF" stroke-width="4"/><g transform="translate(168 726)"><path d="M3.6 8.4V5.6a2 2 0 0 1 2-2h2.8M15.6 3.6h2.8a2 2 0 0 1 2 2v2.8M20.4 15.6v2.8a2 2 0 0 1-2 2h-2.8M8.4 20.4H5.6a2 2 0 0 1-2-2v-2.8" fill="none" stroke="#191F28" stroke-width="2" stroke-linecap="round" stroke-linejoin="round"/><path d="M8.8 15.2v-2.4M12 15.2V8.8M15.2 15.2v-4" fill="none" stroke="#191F28" stroke-width="2" stroke-linecap="round" stroke-linejoin="round"/></g><text x="180" y="787.2" font-family="Pretendard" font-size="12" font-weight="400" letter-spacing="-0.24" fill="#002B7A" text-anchor="middle">분석하기</text><g transform="translate(288 738)"><path d="M12 11.3a3.65 3.65 0 1 0 0-7.3 3.65 3.65 0 0 0 0 7.3Z" fill="none" stroke="#475569" stroke-width="2" stroke-linecap="round" stroke-linejoin="round"/><path d="M4.8 20.4c0-3.6 3.2-6.2 7.2-6.2s7.2 2.6 7.2 6.2" fill="none" stroke="#475569" stroke-width="2" stroke-linecap="round" stroke-linejoin="round"/></g><text x="300" y="783.2" font-family="Pretendard" font-size="12" font-weight="400" letter-spacing="-0.24" fill="#475569" text-anchor="middle">마이페이지</text></g><text x="16" y="19.4" font-family="Pretendard" font-size="14" font-weight="600" letter-spacing="-0.28" fill="#191F28" text-anchor="start">9:41</text><rect x="312" y="10" width="22" height="11" rx="3" fill="none" stroke="#191F28" stroke-width="1"/><rect x="314" y="12" width="16" height="7" rx="1.5" fill="#191F28"/></g><rect x="0" y="0" width="360" height="800" rx="24" fill="none" stroke="#CBD5E1" stroke-width="2"/></g></g><text x="2544" y="1085.2" font-family="Pretendard" font-size="12" font-weight="400" letter-spacing="-0.24" fill="#475569" text-anchor="end">PULSE · TASK-020 Step 6 · 가상 데이터 · 정본: docs/design/synthesis/TASK-020</text></svg>