<svg xmlns="http://www.w3.org/2000/svg" xmlns:xlink="http://www.w3.org/1999/xlink" width="1760" height="1120" viewBox="0 0 1760 1120"><rect x="0" y="0" width="1760" height="1120" rx="0" fill="#FFFFFF"/><text x="64" y="75.6" font-family="Pretendard" font-size="26" font-weight="600" letter-spacing="-0.52" fill="#0F172A" text-anchor="start">07 · Final UI — 다시 분석과 저장 선택 (다음 Slice)</text><text x="64" y="107.4" font-family="Pretendard" font-size="14" font-weight="400" letter-spacing="-0.28" fill="#475569" text-anchor="start">첫 Vertical Slice 다음에 연결한다(SCREEN_STATES §10). 저장 선택은 미리보기 첫 화면부터 하단 고정, 교체만 확인, 미리보기에서는 하단 내비게이션을 숨긴다</text><g transform="translate(64 200)"><g id="Screen/Reanalysis-Input"><text x="0" y="-24.6" font-family="Pretendard" font-size="14" font-weight="700" letter-spacing="-0.28" fill="#0F172A" text-anchor="start">다시 분석 — 내비의 분석하기는 네이비</text><clipPath id="clip-Reanalysis-Input"><rect x="0" y="0" width="360" height="800" rx="24" fill="none"/></clipPath><g clip-path="url(#clip-Reanalysis-Input)"><rect x="0" y="0" width="360" height="800" rx="0" fill="#F5F7FA"/><rect x="0" y="0" width="360" height="32" rx="0" fill="#F5F7FA"/><g id="Header"><rect x="0" y="0" width="360" height="88" rx="0" fill="#FFFFFF"/><line x1="0" y1="88" x2="360" y2="88" stroke="#E2E8F0" stroke-width="1"/><text x="16" y="61.4" font-family="Pretendard" font-size="14" font-weight="600" letter-spacing="-0.28" fill="#0F172A" text-anchor="start">분석하기</text></g><g id="StepIndicator"><rect x="16" y="108" width="104" height="4" rx="9999" fill="#002B7A"/><text x="16" y="129.2" font-family="Pretendard" font-size="12" font-weight="400" letter-spacing="-0.24" fill="#475569" text-anchor="start">✓ 가게 이름</text><rect x="128" y="108" width="104" height="4" rx="9999" fill="#002B7A"/><text x="128" y="129.2" font-family="Pretendard" font-size="12" font-weight="400" letter-spacing="-0.24" fill="#475569" text-anchor="start">✓ 업종</text><rect x="240" y="108" width="104" height="4" rx="9999" fill="#E03E16"/><text x="240" y="131.4" font-family="Pretendard" font-size="14" font-weight="600" letter-spacing="-0.28" fill="#0F172A" text-anchor="start">네이버 가게 주소</text></g><g id="PageTitle"><text x="16" y="183.6" font-family="Pretendard" font-size="26" font-weight="600" letter-spacing="-0.52" fill="#0F172A" text-anchor="start">네이버 가게 주소를</text><text x="16" y="220.6" font-family="Pretendard" font-size="26" font-weight="600" letter-spacing="-0.52" fill="#0F172A" text-anchor="start">붙여 넣어 주세요</text></g><rect x="16" y="256" width="328" height="264" rx="24" fill="#FFFFFF" stroke="#E2E8F0" stroke-width="1"/><g id="InputDoneRow/가게 이름"><text x="36" y="289.2" font-family="Pretendard" font-size="12" font-weight="400" letter-spacing="-0.24" fill="#475569" text-anchor="start">가게 이름</text><text x="36" y="311.4" font-family="Pretendard" font-size="14" font-weight="700" letter-spacing="-0.28" fill="#191F28" text-anchor="start">영등원조쌈밥</text><text x="324" y="301.4" font-family="Pretendard" font-size="14" font-weight="600" letter-spacing="-0.28" fill="#002B7A" text-anchor="end">수정</text><line x1="36" y1="332" x2="324" y2="332" stroke="#E2E8F0" stroke-width="1"/></g><g id="InputDoneRow/업종"><text x="36" y="361.2" font-family="Pretendard" font-size="12" font-weight="400" letter-spacing="-0.24" fill="#475569" text-anchor="start">업종</text><text x="36" y="383.4" font-family="Pretendard" font-size="14" font-weight="700" letter-spacing="-0.28" fill="#191F28" text-anchor="start">한식</text><text x="324" y="373.4" font-family="Pretendard" font-size="14" font-weight="600" letter-spacing="-0.28" fill="#002B7A" text-anchor="end">수정</text><line x1="36" y1="404" x2="324" y2="404" stroke="#E2E8F0" stroke-width="1"/></g><g id="TextField/default/네이버 가게 URL"><text x="36" y="435.4" font-family="Pretendard" font-size="14" font-weight="600" letter-spacing="-0.28" fill="#191F28" text-anchor="start">네이버 가게 URL</text><rect x="36" y="449" width="288" height="52" rx="12" fill="#FFFFFF" stroke="#64748B" stroke-width="1"/><text x="52" y="480.6" font-family="Pretendard" font-size="16" font-weight="400" letter-spacing="-0.32" fill="#191F28" text-anchor="start">https://naver.me/example</text></g><g id="Button/Primary/분석하기"><rect x="16" y="536" width="328" height="52" rx="12" fill="#002B7A"/><text x="180" y="567.6" font-family="Pretendard" font-size="16" font-weight="600" letter-spacing="-0.32" fill="#FFFFFF" text-anchor="middle">분석하기</text></g><g id="BottomNavigation/analysis"><rect x="0" y="728" width="360" height="72" rx="0" fill="#FFFFFF"/><line x1="0" y1="728" x2="360" y2="728" stroke="#E2E8F0" stroke-width="1"/><text x="60" y="783.2" font-family="Pretendard" font-size="12" font-weight="400" letter-spacing="-0.24" fill="#475569" text-anchor="middle">홈</text><g transform="translate(48 738)"><path d="M3.5 10.2 12 3.6l8.5 6.6V19a1.5 1.5 0 0 1-1.5 1.5h-3.8v-5.6H8.8v5.6H5A1.5 1.5 0 0 1 3.5 19v-8.8Z" fill="none" stroke="#475569" stroke-width="2" stroke-linecap="round" stroke-linejoin="round"/></g><circle cx="180" cy="738" r="28" fill="#002B7A" stroke="#FFFFFF" stroke-width="4"/><g transform="translate(168 726)"><path d="M3.6 8.4V5.6a2 2 0 0 1 2-2h2.8M15.6 3.6h2.8a2 2 0 0 1 2 2v2.8M20.4 15.6v2.8a2 2 0 0 1-2 2h-2.8M8.4 20.4H5.6a2 2 0 0 1-2-2v-2.8" fill="none" stroke="#FFFFFF" stroke-width="2" stroke-linecap="round" stroke-linejoin="round"/><path d="M8.8 15.2v-2.4M12 15.2V8.8M15.2 15.2v-4" fill="none" stroke="#FFFFFF" stroke-width="2" stroke-linecap="round" stroke-linejoin="round"/></g><text x="180" y="787.2" font-family="Pretendard" font-size="12" font-weight="400" letter-spacing="-0.24" fill="#002B7A" text-anchor="middle">분석하기</text><g transform="translate(288 738)"><path d="M12 11.3a3.65 3.65 0 1 0 0-7.3 3.65 3.65 0 0 0 0 7.3Z" fill="none" stroke="#475569" stroke-width="2" stroke-linecap="round" stroke-linejoin="round"/><path d="M4.8 20.4c0-3.6 3.2-6.2 7.2-6.2s7.2 2.6 7.2 6.2" fill="none" stroke="#475569" stroke-width="2" stroke-linecap="round" stroke-linejoin="round"/></g><text x="300" y="783.2" font-family="Pretendard" font-size="12" font-weight="400" letter-spacing="-0.24" fill="#475569" text-anchor="middle">마이페이지</text></g><text x="16" y="19.4" font-family="Pretendard" font-size="14" font-weight="600" letter-spacing="-0.28" fill="#191F28" text-anchor="start">9:41</text><rect x="312" y="10" width="22" height="11" rx="3" fill="none" stroke="#191F28" stroke-width="1"/><rect x="314" y="12" width="16" height="7" rx="1.5" fill="#191F28"/></g><rect x="0" y="0" width="360" height="800" rx="24" fill="none" stroke="#CBD5E1" stroke-width="2"/></g></g><g transform="translate(488 200)"><g id="Screen/Preview"><text x="0" y="-24.6" font-family="Pretendard" font-size="14" font-weight="700" letter-spacing="-0.28" fill="#0F172A" text-anchor="start">새 결과 미리보기</text><clipPath id="clip-Preview"><rect x="0" y="0" width="360" height="800" rx="24" fill="none"/></clipPath><g clip-path="url(#clip-Preview)"><rect x="0" y="0" width="360" height="800" rx="0" fill="#F5F7FA"/><rect x="0" y="0" width="360" height="32" rx="0" fill="#F5F7FA"/><g id="Header 2"><rect x="0" y="0" width="360" height="88" rx="0" fill="#FFFFFF"/><line x1="0" y1="88" x2="360" y2="88" stroke="#E2E8F0" stroke-width="1"/><text x="16" y="61.4" font-family="Pretendard" font-size="14" font-weight="600" letter-spacing="-0.28" fill="#0F172A" text-anchor="start">새 분석 결과</text><rect x="192.32" y="46" width="151.68" height="28" rx="9999" fill="#F1F5F9"/><text x="332" y="64.4" font-family="Pretendard" font-size="14" font-weight="400" letter-spacing="-0.28" fill="#475569" text-anchor="end">아직 저장하지 않음</text></g><text x="16" y="131.6" font-family="Pretendard" font-size="26" font-weight="600" letter-spacing="-0.52" fill="#0F172A" text-anchor="start">영등원조쌈밥</text><text x="16" y="161.4" font-family="Pretendard" font-size="14" font-weight="400" letter-spacing="-0.28" fill="#475569" text-anchor="start">네이버 리뷰 131건 · 2026.09.20 분석</text><g id="Podium"><text x="16" y="193.2" font-family="Pretendard" font-size="12" font-weight="400" letter-spacing="-0.24" fill="#475569" text-anchor="start">리뷰 수 순서</text><text x="16" y="223.0" font-family="Pretendard" font-size="20" font-weight="600" letter-spacing="-0.4" fill="#0F172A" text-anchor="start">리뷰에 많이 나온 손님 TOP3</text><rect x="16" y="240" width="328" height="306" rx="24" fill="#FFFFFF" stroke="#E2E8F0" stroke-width="1"/><g id="PodiumSlot/Runner"><g transform="translate(41.33333333333334 274) scale(1.25)"><circle cx="32" cy="32" r="32" fill="#FBE3DC"/><path d="M12 64c0-11 9-19 20-19s20 8 20 19H12Z" fill="#002B7A"/><rect x="27" y="38" width="10" height="8" rx="3" fill="#F2C9A8"/><circle cx="32" cy="28" r="13" fill="#F7D6B8"/><path d="M19 27a13 13 0 0 1 26 0c0-4-4-5-7-6-3-1-5-3-9-2s-6 3-7 5-3 2-3 3Z" fill="#0F172A"/><circle cx="27" cy="28" r="1.7" fill="#0F172A"/><circle cx="37" cy="28" r="1.7" fill="#0F172A"/><path d="M28.5 33.5a4.5 4.5 0 0 0 7 0" fill="none" stroke="#0F172A" stroke-width="1.6" stroke-linecap="round"/></g><text x="81.33333333333334" y="375.4" font-family="Pretendard" font-size="14" font-weight="600" letter-spacing="-0.28" fill="#0F172A" text-anchor="middle">매운맛</text><text x="81.33333333333334" y="396.4" font-family="Pretendard" font-size="14" font-weight="600" letter-spacing="-0.28" fill="#0F172A" text-anchor="middle">조절형</text><text x="81.33333333333334" y="415.2" font-family="Pretendard" font-size="12" font-weight="400" letter-spacing="-0.24" fill="#475569" text-anchor="middle">리뷰 19건</text><path d="M 36.00000000000001 488 L 36.00000000000001 444 Q 36.00000000000001 432 48.00000000000001 432 L 114.66666666666669 432 Q 126.66666666666669 432 126.66666666666669 444 L 126.66666666666669 488 Z" fill="#F1F5F9"/><text x="81.33333333333334" y="467.0" font-family="Pretendard" font-size="20" font-weight="600" letter-spacing="-0.4" fill="#002B7A" text-anchor="middle">2</text></g><g id="PodiumSlot/First"><g transform="translate(132.00000000000003 255) scale(1.5)"><circle cx="32" cy="32" r="32" fill="#DCE7F7"/><path d="M12 64c0-11 9-19 20-19s20 8 20 19H12Z" fill="#002B7A"/><rect x="27" y="38" width="10" height="8" rx="3" fill="#F2C9A8"/><circle cx="32" cy="28" r="13" fill="#F7D6B8"/><path d="M19 27a13 13 0 0 1 26 0c0-4-4-5-7-6-3-1-5-3-9-2s-6 3-7 5-3 2-3 3Z" fill="#0F172A"/><circle cx="27" cy="28" r="1.7" fill="#0F172A"/><circle cx="37" cy="28" r="1.7" fill="#0F172A"/><path d="M28.5 33.5a4.5 4.5 0 0 0 7 0" fill="none" stroke="#0F172A" stroke-width="1.6" stroke-linecap="round"/></g><circle cx="180.00000000000003" cy="303" r="51" fill="none" stroke="#002B7A" stroke-width="2"/><text x="180.00000000000003" y="372.4" font-family="Pretendard" font-size="14" font-weight="600" letter-spacing="-0.28" fill="#0F172A" text-anchor="middle">추억 재방문형</text><text x="180.00000000000003" y="391.2" font-family="Pretendard" font-size="12" font-weight="400" letter-spacing="-0.24" fill="#475569" text-anchor="middle">리뷰 24건</text><path d="M 134.66666666666669 488 L 134.66666666666669 420 Q 134.66666666666669 408 146.66666666666669 408 L 213.33333333333337 408 Q 225.33333333333337 408 225.33333333333337 420 L 225.33333333333337 488 Z" fill="#002B7A"/><text x="180.00000000000003" y="437.0" font-family="Pretendard" font-size="20" font-weight="600" letter-spacing="-0.4" fill="#FFFFFF" text-anchor="middle">1</text><text x="180.00000000000003" y="459.2" font-family="Pretendard" font-size="12" font-weight="400" letter-spacing="-0.24" fill="#FFFFFF" text-anchor="middle">보는 중</text></g><g id="PodiumSlot/Runner 2"><g transform="translate(238.66666666666669 282) scale(1.25)"><circle cx="32" cy="32" r="32" fill="#E2ECE4"/><path d="M12 64c0-11 9-19 20-19s20 8 20 19H12Z" fill="#002B7A"/><rect x="27" y="38" width="10" height="8" rx="3" fill="#F2C9A8"/><circle cx="32" cy="28" r="13" fill="#F7D6B8"/><path d="M19 27a13 13 0 0 1 26 0c0-4-4-5-7-6-3-1-5-3-9-2s-6 3-7 5-3 2-3 3Z" fill="#0F172A"/><circle cx="27" cy="28" r="1.7" fill="#0F172A"/><circle cx="37" cy="28" r="1.7" fill="#0F172A"/><path d="M28.5 33.5a4.5 4.5 0 0 0 7 0" fill="none" stroke="#0F172A" stroke-width="1.6" stroke-linecap="round"/></g><text x="278.6666666666667" y="383.4" font-family="Pretendard" font-size="14" font-weight="600" letter-spacing="-0.28" fill="#0F172A" text-anchor="middle">혼밥</text><text x="278.6666666666667" y="404.4" font-family="Pretendard" font-size="14" font-weight="600" letter-spacing="-0.28" fill="#0F172A" text-anchor="middle">안심형</text><text x="278.6666666666667" y="423.2" font-family="Pretendard" font-size="12" font-weight="400" letter-spacing="-0.24" fill="#475569" text-anchor="middle">리뷰 16건</text><path d="M 233.33333333333334 488 L 233.33333333333334 452 Q 233.33333333333334 440 245.33333333333334 440 L 312 440 Q 324 440 324 452 L 324 488 Z" fill="#F1F5F9"/><text x="278.6666666666667" y="471.0" font-family="Pretendard" font-size="20" font-weight="600" letter-spacing="-0.4" fill="#002B7A" text-anchor="middle">3</text></g><text x="36" y="533.2" font-family="Pretendard" font-size="12" font-weight="400" letter-spacing="-0.24" fill="#475569" text-anchor="start">그림은 AI로 만든 가상 이미지예요.</text></g><g id="SaveChoiceBar"><rect x="0" y="616" width="360" height="184" rx="0" fill="#FFFFFF"/><line x1="0" y1="616" x2="360" y2="616" stroke="#E2E8F0" stroke-width="1"/><g id="Button/Primary/새 결과로 바꾸기"><rect x="16" y="628" width="328" height="52" rx="12" fill="#002B7A"/><text x="180" y="659.6" font-family="Pretendard" font-size="16" font-weight="600" letter-spacing="-0.32" fill="#FFFFFF" text-anchor="middle">새 결과로 바꾸기</text></g><g id="Button/Outline/기존 결과 유지"><rect x="16" y="688" width="328" height="52" rx="12" fill="#FFFFFF" stroke="#002B7A" stroke-width="1"/><text x="180" y="719.6" font-family="Pretendard" font-size="16" font-weight="600" letter-spacing="-0.32" fill="#002B7A" text-anchor="middle">기존 결과 유지</text></g><text x="16" y="761.2" font-family="Pretendard" font-size="12" font-weight="400" letter-spacing="-0.24" fill="#475569" text-anchor="start">기존 결과를 유지하면 이번 새 결과는 저장되지 않고,</text><text x="16" y="779.2" font-family="Pretendard" font-size="12" font-weight="400" letter-spacing="-0.24" fill="#475569" text-anchor="start">이 화면을 닫은 뒤에는 다시 볼 수 없을 수 있어요.</text></g><text x="16" y="19.4" font-family="Pretendard" font-size="14" font-weight="600" letter-spacing="-0.28" fill="#191F28" text-anchor="start">9:41</text><rect x="312" y="10" width="22" height="11" rx="3" fill="none" stroke="#191F28" stroke-width="1"/><rect x="314" y="12" width="16" height="7" rx="1.5" fill="#191F28"/></g><rect x="0" y="0" width="360" height="800" rx="24" fill="none" stroke="#CBD5E1" stroke-width="2"/></g></g><g transform="translate(912 200)"><g id="Screen/Replace-Confirm"><text x="0" y="-24.6" font-family="Pretendard" font-size="14" font-weight="700" letter-spacing="-0.28" fill="#0F172A" text-anchor="start">교체 확인 (배경 이미지는 회색으로 대체)</text><clipPath id="clip-Replace-Confirm"><rect x="0" y="0" width="360" height="800" rx="24" fill="none"/></clipPath><g clip-path="url(#clip-Replace-Confirm)"><rect x="0" y="0" width="360" height="800" rx="0" fill="#F5F7FA"/><rect x="0" y="0" width="360" height="32" rx="0" fill="#F5F7FA"/><g id="Header 3"><rect x="0" y="0" width="360" height="88" rx="0" fill="#FFFFFF"/><line x1="0" y1="88" x2="360" y2="88" stroke="#E2E8F0" stroke-width="1"/><text x="16" y="61.4" font-family="Pretendard" font-size="14" font-weight="600" letter-spacing="-0.28" fill="#0F172A" text-anchor="start">새 분석 결과</text><rect x="192.32" y="46" width="151.68" height="28" rx="9999" fill="#F1F5F9"/><text x="332" y="64.4" font-family="Pretendard" font-size="14" font-weight="400" letter-spacing="-0.28" fill="#475569" text-anchor="end">아직 저장하지 않음</text></g><text x="16" y="131.6" font-family="Pretendard" font-size="26" font-weight="600" letter-spacing="-0.52" fill="#0F172A" text-anchor="start">영등원조쌈밥</text><text x="16" y="161.4" font-family="Pretendard" font-size="14" font-weight="400" letter-spacing="-0.28" fill="#475569" text-anchor="start">네이버 리뷰 131건 · 2026.09.20 분석</text><g id="Podium 2"><text x="16" y="193.2" font-family="Pretendard" font-size="12" font-weight="400" letter-spacing="-0.24" fill="#475569" text-anchor="start">리뷰 수 순서</text><text x="16" y="223.0" font-family="Pretendard" font-size="20" font-weight="600" letter-spacing="-0.4" fill="#0F172A" text-anchor="start">리뷰에 많이 나온 손님 TOP3</text><rect x="16" y="240" width="328" height="306" rx="24" fill="#FFFFFF" stroke="#E2E8F0" stroke-width="1"/><g id="PodiumSlot/Runner 3"><g transform="translate(41.33333333333334 274) scale(1.25)"><circle cx="32" cy="32" r="32" fill="#FBE3DC"/><path d="M12 64c0-11 9-19 20-19s20 8 20 19H12Z" fill="#002B7A"/><rect x="27" y="38" width="10" height="8" rx="3" fill="#F2C9A8"/><circle cx="32" cy="28" r="13" fill="#F7D6B8"/><path d="M19 27a13 13 0 0 1 26 0c0-4-4-5-7-6-3-1-5-3-9-2s-6 3-7 5-3 2-3 3Z" fill="#0F172A"/><circle cx="27" cy="28" r="1.7" fill="#0F172A"/><circle cx="37" cy="28" r="1.7" fill="#0F172A"/><path d="M28.5 33.5a4.5 4.5 0 0 0 7 0" fill="none" stroke="#0F172A" stroke-width="1.6" stroke-linecap="round"/></g><text x="81.33333333333334" y="375.4" font-family="Pretendard" font-size="14" font-weight="600" letter-spacing="-0.28" fill="#0F172A" text-anchor="middle">매운맛</text><text x="81.33333333333334" y="396.4" font-family="Pretendard" font-size="14" font-weight="600" letter-spacing="-0.28" fill="#0F172A" text-anchor="middle">조절형</text><text x="81.33333333333334" y="415.2" font-family="Pretendard" font-size="12" font-weight="400" letter-spacing="-0.24" fill="#475569" text-anchor="middle">리뷰 19건</text><path d="M 36.00000000000001 488 L 36.00000000000001 444 Q 36.00000000000001 432 48.00000000000001 432 L 114.66666666666669 432 Q 126.66666666666669 432 126.66666666666669 444 L 126.66666666666669 488 Z" fill="#F1F5F9"/><text x="81.33333333333334" y="467.0" font-family="Pretendard" font-size="20" font-weight="600" letter-spacing="-0.4" fill="#002B7A" text-anchor="middle">2</text></g><g id="PodiumSlot/First 2"><g transform="translate(132.00000000000003 255) scale(1.5)"><circle cx="32" cy="32" r="32" fill="#DCE7F7"/><path d="M12 64c0-11 9-19 20-19s20 8 20 19H12Z" fill="#002B7A"/><rect x="27" y="38" width="10" height="8" rx="3" fill="#F2C9A8"/><circle cx="32" cy="28" r="13" fill="#F7D6B8"/><path d="M19 27a13 13 0 0 1 26 0c0-4-4-5-7-6-3-1-5-3-9-2s-6 3-7 5-3 2-3 3Z" fill="#0F172A"/><circle cx="27" cy="28" r="1.7" fill="#0F172A"/><circle cx="37" cy="28" r="1.7" fill="#0F172A"/><path d="M28.5 33.5a4.5 4.5 0 0 0 7 0" fill="none" stroke="#0F172A" stroke-width="1.6" stroke-linecap="round"/></g><circle cx="180.00000000000003" cy="303" r="51" fill="none" stroke="#002B7A" stroke-width="2"/><text x="180.00000000000003" y="372.4" font-family="Pretendard" font-size="14" font-weight="600" letter-spacing="-0.28" fill="#0F172A" text-anchor="middle">추억 재방문형</text><text x="180.00000000000003" y="391.2" font-family="Pretendard" font-size="12" font-weight="400" letter-spacing="-0.24" fill="#475569" text-anchor="middle">리뷰 24건</text><path d="M 134.66666666666669 488 L 134.66666666666669 420 Q 134.66666666666669 408 146.66666666666669 408 L 213.33333333333337 408 Q 225.33333333333337 408 225.33333333333337 420 L 225.33333333333337 488 Z" fill="#002B7A"/><text x="180.00000000000003" y="437.0" font-family="Pretendard" font-size="20" font-weight="600" letter-spacing="-0.4" fill="#FFFFFF" text-anchor="middle">1</text><text x="180.00000000000003" y="459.2" font-family="Pretendard" font-size="12" font-weight="400" letter-spacing="-0.24" fill="#FFFFFF" text-anchor="middle">보는 중</text></g><g id="PodiumSlot/Runner 4"><g transform="translate(238.66666666666669 282) scale(1.25)"><circle cx="32" cy="32" r="32" fill="#E2ECE4"/><path d="M12 64c0-11 9-19 20-19s20 8 20 19H12Z" fill="#002B7A"/><rect x="27" y="38" width="10" height="8" rx="3" fill="#F2C9A8"/><circle cx="32" cy="28" r="13" fill="#F7D6B8"/><path d="M19 27a13 13 0 0 1 26 0c0-4-4-5-7-6-3-1-5-3-9-2s-6 3-7 5-3 2-3 3Z" fill="#0F172A"/><circle cx="27" cy="28" r="1.7" fill="#0F172A"/><circle cx="37" cy="28" r="1.7" fill="#0F172A"/><path d="M28.5 33.5a4.5 4.5 0 0 0 7 0" fill="none" stroke="#0F172A" stroke-width="1.6" stroke-linecap="round"/></g><text x="278.6666666666667" y="383.4" font-family="Pretendard" font-size="14" font-weight="600" letter-spacing="-0.28" fill="#0F172A" text-anchor="middle">혼밥</text><text x="278.6666666666667" y="404.4" font-family="Pretendard" font-size="14" font-weight="600" letter-spacing="-0.28" fill="#0F172A" text-anchor="middle">안심형</text><text x="278.6666666666667" y="423.2" font-family="Pretendard" font-size="12" font-weight="400" letter-spacing="-0.24" fill="#475569" text-anchor="middle">리뷰 16건</text><path d="M 233.33333333333334 488 L 233.33333333333334 452 Q 233.33333333333334 440 245.33333333333334 440 L 312 440 Q 324 440 324 452 L 324 488 Z" fill="#F1F5F9"/><text x="278.6666666666667" y="471.0" font-family="Pretendard" font-size="20" font-weight="600" letter-spacing="-0.4" fill="#002B7A" text-anchor="middle">3</text></g><text x="36" y="533.2" font-family="Pretendard" font-size="12" font-weight="400" letter-spacing="-0.24" fill="#475569" text-anchor="start">그림은 AI로 만든 가상 이미지예요.</text></g><g id="SaveChoiceBar 2"><rect x="0" y="616" width="360" height="184" rx="0" fill="#FFFFFF"/><line x1="0" y1="616" x2="360" y2="616" stroke="#E2E8F0" stroke-width="1"/><g id="Button/Primary/새 결과로 바꾸기 2"><rect x="16" y="628" width="328" height="52" rx="12" fill="#002B7A"/><text x="180" y="659.6" font-family="Pretendard" font-size="16" font-weight="600" letter-spacing="-0.32" fill="#FFFFFF" text-anchor="middle">새 결과로 바꾸기</text></g><g id="Button/Outline/기존 결과 유지 2"><rect x="16" y="688" width="328" height="52" rx="12" fill="#FFFFFF" stroke="#002B7A" stroke-width="1"/><text x="180" y="719.6" font-family="Pretendard" font-size="16" font-weight="600" letter-spacing="-0.32" fill="#002B7A" text-anchor="middle">기존 결과 유지</text></g><text x="16" y="761.2" font-family="Pretendard" font-size="12" font-weight="400" letter-spacing="-0.24" fill="#475569" text-anchor="start">기존 결과를 유지하면 이번 새 결과는 저장되지 않고,</text><text x="16" y="779.2" font-family="Pretendard" font-size="12" font-weight="400" letter-spacing="-0.24" fill="#475569" text-anchor="start">이 화면을 닫은 뒤에는 다시 볼 수 없을 수 있어요.</text></g><text x="16" y="19.4" font-family="Pretendard" font-size="14" font-weight="600" letter-spacing="-0.28" fill="#191F28" text-anchor="start">9:41</text><rect x="312" y="10" width="22" height="11" rx="3" fill="none" stroke="#191F28" stroke-width="1"/><rect x="314" y="12" width="16" height="7" rx="1.5" fill="#191F28"/><rect x="0" y="0" width="360" height="800" rx="0" fill="#0F172A" opacity="0.5"/><g id="Dialog/ReplaceConfirm"><rect x="20" y="250" width="320" height="268" rx="24" fill="#FFFFFF"/><text x="44" y="295.0" font-family="Pretendard" font-size="20" font-weight="600" letter-spacing="-0.4" fill="#0F172A" text-anchor="start">저장된 결과를 바꿀까요?</text><rect x="44" y="318" width="272" height="64" rx="12" fill="#F8FAFC" stroke="#E2E8F0" stroke-width="1"/><text x="56" y="341.2" font-family="Pretendard" font-size="12" font-weight="400" letter-spacing="-0.24" fill="#475569" text-anchor="start">지금 저장된 결과</text><text x="56" y="363.4" font-family="Pretendard" font-size="14" font-weight="600" letter-spacing="-0.28" fill="#191F28" text-anchor="start">영등원조쌈밥 · 2026.09.18 분석</text><text x="44" y="413.6" font-family="Pretendard" font-size="16" font-weight="400" letter-spacing="-0.32" fill="#191F28" text-anchor="start">바꾸면 이전 결과는 앱에서</text><text x="44" y="437.6" font-family="Pretendard" font-size="16" font-weight="400" letter-spacing="-0.32" fill="#191F28" text-anchor="start">다시 볼 수 없어요.</text><g id="Button/Quiet/취소"><rect x="44" y="452" width="128" height="48" rx="12" fill="#F1F5F9"/><text x="108" y="481.3" font-family="Pretendard" font-size="15" font-weight="500" letter-spacing="-0.3" fill="#191F28" text-anchor="middle">취소</text></g><g id="Button/Destructive/바꾸기"><rect x="180" y="452" width="136" height="48" rx="12" fill="#B91C1C"/><text x="248" y="481.6" font-family="Pretendard" font-size="16" font-weight="600" letter-spacing="-0.32" fill="#FFFFFF" text-anchor="middle">바꾸기</text></g></g></g><rect x="0" y="0" width="360" height="800" rx="24" fill="none" stroke="#CBD5E1" stroke-width="2"/></g></g><g transform="translate(1336 200)"><g id="Screen/Leave-Choice"><text x="0" y="-24.6" font-family="Pretendard" font-size="14" font-weight="700" letter-spacing="-0.28" fill="#0F172A" text-anchor="start">뒤로가기 (배경 이미지는 회색으로 대체)</text><clipPath id="clip-Leave-Choice"><rect x="0" y="0" width="360" height="800" rx="24" fill="none"/></clipPath><g clip-path="url(#clip-Leave-Choice)"><rect x="0" y="0" width="360" height="800" rx="0" fill="#F5F7FA"/><rect x="0" y="0" width="360" height="32" rx="0" fill="#F5F7FA"/><g id="Header 4"><rect x="0" y="0" width="360" height="88" rx="0" fill="#FFFFFF"/><line x1="0" y1="88" x2="360" y2="88" stroke="#E2E8F0" stroke-width="1"/><text x="16" y="61.4" font-family="Pretendard" font-size="14" font-weight="600" letter-spacing="-0.28" fill="#0F172A" text-anchor="start">새 분석 결과</text><rect x="192.32" y="46" width="151.68" height="28" rx="9999" fill="#F1F5F9"/><text x="332" y="64.4" font-family="Pretendard" font-size="14" font-weight="400" letter-spacing="-0.28" fill="#475569" text-anchor="end">아직 저장하지 않음</text></g><text x="16" y="131.6" font-family="Pretendard" font-size="26" font-weight="600" letter-spacing="-0.52" fill="#0F172A" text-anchor="start">영등원조쌈밥</text><text x="16" y="161.4" font-family="Pretendard" font-size="14" font-weight="400" letter-spacing="-0.28" fill="#475569" text-anchor="start">네이버 리뷰 131건 · 2026.09.20 분석</text><g id="Podium 3"><text x="16" y="193.2" font-family="Pretendard" font-size="12" font-weight="400" letter-spacing="-0.24" fill="#475569" text-anchor="start">리뷰 수 순서</text><text x="16" y="223.0" font-family="Pretendard" font-size="20" font-weight="600" letter-spacing="-0.4" fill="#0F172A" text-anchor="start">리뷰에 많이 나온 손님 TOP3</text><rect x="16" y="240" width="328" height="306" rx="24" fill="#FFFFFF" stroke="#E2E8F0" stroke-width="1"/><g id="PodiumSlot/Runner 5"><g transform="translate(41.33333333333334 274) scale(1.25)"><circle cx="32" cy="32" r="32" fill="#FBE3DC"/><path d="M12 64c0-11 9-19 20-19s20 8 20 19H12Z" fill="#002B7A"/><rect x="27" y="38" width="10" height="8" rx="3" fill="#F2C9A8"/><circle cx="32" cy="28" r="13" fill="#F7D6B8"/><path d="M19 27a13 13 0 0 1 26 0c0-4-4-5-7-6-3-1-5-3-9-2s-6 3-7 5-3 2-3 3Z" fill="#0F172A"/><circle cx="27" cy="28" r="1.7" fill="#0F172A"/><circle cx="37" cy="28" r="1.7" fill="#0F172A"/><path d="M28.5 33.5a4.5 4.5 0 0 0 7 0" fill="none" stroke="#0F172A" stroke-width="1.6" stroke-linecap="round"/></g><text x="81.33333333333334" y="375.4" font-family="Pretendard" font-size="14" font-weight="600" letter-spacing="-0.28" fill="#0F172A" text-anchor="middle">매운맛</text><text x="81.33333333333334" y="396.4" font-family="Pretendard" font-size="14" font-weight="600" letter-spacing="-0.28" fill="#0F172A" text-anchor="middle">조절형</text><text x="81.33333333333334" y="415.2" font-family="Pretendard" font-size="12" font-weight="400" letter-spacing="-0.24" fill="#475569" text-anchor="middle">리뷰 19건</text><path d="M 36.00000000000001 488 L 36.00000000000001 444 Q 36.00000000000001 432 48.00000000000001 432 L 114.66666666666669 432 Q 126.66666666666669 432 126.66666666666669 444 L 126.66666666666669 488 Z" fill="#F1F5F9"/><text x="81.33333333333334" y="467.0" font-family="Pretendard" font-size="20" font-weight="600" letter-spacing="-0.4" fill="#002B7A" text-anchor="middle">2</text></g><g id="PodiumSlot/First 3"><g transform="translate(132.00000000000003 255) scale(1.5)"><circle cx="32" cy="32" r="32" fill="#DCE7F7"/><path d="M12 64c0-11 9-19 20-19s20 8 20 19H12Z" fill="#002B7A"/><rect x="27" y="38" width="10" height="8" rx="3" fill="#F2C9A8"/><circle cx="32" cy="28" r="13" fill="#F7D6B8"/><path d="M19 27a13 13 0 0 1 26 0c0-4-4-5-7-6-3-1-5-3-9-2s-6 3-7 5-3 2-3 3Z" fill="#0F172A"/><circle cx="27" cy="28" r="1.7" fill="#0F172A"/><circle cx="37" cy="28" r="1.7" fill="#0F172A"/><path d="M28.5 33.5a4.5 4.5 0 0 0 7 0" fill="none" stroke="#0F172A" stroke-width="1.6" stroke-linecap="round"/></g><circle cx="180.00000000000003" cy="303" r="51" fill="none" stroke="#002B7A" stroke-width="2"/><text x="180.00000000000003" y="372.4" font-family="Pretendard" font-size="14" font-weight="600" letter-spacing="-0.28" fill="#0F172A" text-anchor="middle">추억 재방문형</text><text x="180.00000000000003" y="391.2" font-family="Pretendard" font-size="12" font-weight="400" letter-spacing="-0.24" fill="#475569" text-anchor="middle">리뷰 24건</text><path d="M 134.66666666666669 488 L 134.66666666666669 420 Q 134.66666666666669 408 146.66666666666669 408 L 213.33333333333337 408 Q 225.33333333333337 408 225.33333333333337 420 L 225.33333333333337 488 Z" fill="#002B7A"/><text x="180.00000000000003" y="437.0" font-family="Pretendard" font-size="20" font-weight="600" letter-spacing="-0.4" fill="#FFFFFF" text-anchor="middle">1</text><text x="180.00000000000003" y="459.2" font-family="Pretendard" font-size="12" font-weight="400" letter-spacing="-0.24" fill="#FFFFFF" text-anchor="middle">보는 중</text></g><g id="PodiumSlot/Runner 6"><g transform="translate(238.66666666666669 282) scale(1.25)"><circle cx="32" cy="32" r="32" fill="#E2ECE4"/><path d="M12 64c0-11 9-19 20-19s20 8 20 19H12Z" fill="#002B7A"/><rect x="27" y="38" width="10" height="8" rx="3" fill="#F2C9A8"/><circle cx="32" cy="28" r="13" fill="#F7D6B8"/><path d="M19 27a13 13 0 0 1 26 0c0-4-4-5-7-6-3-1-5-3-9-2s-6 3-7 5-3 2-3 3Z" fill="#0F172A"/><circle cx="27" cy="28" r="1.7" fill="#0F172A"/><circle cx="37" cy="28" r="1.7" fill="#0F172A"/><path d="M28.5 33.5a4.5 4.5 0 0 0 7 0" fill="none" stroke="#0F172A" stroke-width="1.6" stroke-linecap="round"/></g><text x="278.6666666666667" y="383.4" font-family="Pretendard" font-size="14" font-weight="600" letter-spacing="-0.28" fill="#0F172A" text-anchor="middle">혼밥</text><text x="278.6666666666667" y="404.4" font-family="Pretendard" font-size="14" font-weight="600" letter-spacing="-0.28" fill="#0F172A" text-anchor="middle">안심형</text><text x="278.6666666666667" y="423.2" font-family="Pretendard" font-size="12" font-weight="400" letter-spacing="-0.24" fill="#475569" text-anchor="middle">리뷰 16건</text><path d="M 233.33333333333334 488 L 233.33333333333334 452 Q 233.33333333333334 440 245.33333333333334 440 L 312 440 Q 324 440 324 452 L 324 488 Z" fill="#F1F5F9"/><text x="278.6666666666667" y="471.0" font-family="Pretendard" font-size="20" font-weight="600" letter-spacing="-0.4" fill="#002B7A" text-anchor="middle">3</text></g><text x="36" y="533.2" font-family="Pretendard" font-size="12" font-weight="400" letter-spacing="-0.24" fill="#475569" text-anchor="start">그림은 AI로 만든 가상 이미지예요.</text></g><g id="SaveChoiceBar 3"><rect x="0" y="616" width="360" height="184" rx="0" fill="#FFFFFF"/><line x1="0" y1="616" x2="360" y2="616" stroke="#E2E8F0" stroke-width="1"/><g id="Button/Primary/새 결과로 바꾸기 3"><rect x="16" y="628" width="328" height="52" rx="12" fill="#002B7A"/><text x="180" y="659.6" font-family="Pretendard" font-size="16" font-weight="600" letter-spacing="-0.32" fill="#FFFFFF" text-anchor="middle">새 결과로 바꾸기</text></g><g id="Button/Outline/기존 결과 유지 3"><rect x="16" y="688" width="328" height="52" rx="12" fill="#FFFFFF" stroke="#002B7A" stroke-width="1"/><text x="180" y="719.6" font-family="Pretendard" font-size="16" font-weight="600" letter-spacing="-0.32" fill="#002B7A" text-anchor="middle">기존 결과 유지</text></g><text x="16" y="761.2" font-family="Pretendard" font-size="12" font-weight="400" letter-spacing="-0.24" fill="#475569" text-anchor="start">기존 결과를 유지하면 이번 새 결과는 저장되지 않고,</text><text x="16" y="779.2" font-family="Pretendard" font-size="12" font-weight="400" letter-spacing="-0.24" fill="#475569" text-anchor="start">이 화면을 닫은 뒤에는 다시 볼 수 없을 수 있어요.</text></g><text x="16" y="19.4" font-family="Pretendard" font-size="14" font-weight="600" letter-spacing="-0.28" fill="#191F28" text-anchor="start">9:41</text><rect x="312" y="10" width="22" height="11" rx="3" fill="none" stroke="#191F28" stroke-width="1"/><rect x="314" y="12" width="16" height="7" rx="1.5" fill="#191F28"/><rect x="0" y="0" width="360" height="800" rx="0" fill="#0F172A" opacity="0.5"/><g id="Dialog/LeaveChoice"><rect x="20" y="214" width="320" height="332" rx="24" fill="#FFFFFF"/><text x="44" y="259.0" font-family="Pretendard" font-size="20" font-weight="600" letter-spacing="-0.4" fill="#0F172A" text-anchor="start">새 결과를 어떻게 할까요?</text><text x="44" y="297.6" font-family="Pretendard" font-size="16" font-weight="400" letter-spacing="-0.32" fill="#191F28" text-anchor="start">선택하지 않고 나가면 새 결과를</text><text x="44" y="321.6" font-family="Pretendard" font-size="16" font-weight="400" letter-spacing="-0.32" fill="#191F28" text-anchor="start">다시 볼 수 없을 수 있어요.</text><g id="Button/Outline/새 결과로 바꾸기"><rect x="44" y="342" width="272" height="48" rx="12" fill="none" stroke="#002B7A" stroke-width="1"/><text x="180" y="370.3" font-family="Pretendard" font-size="15" font-weight="500" letter-spacing="-0.3" fill="#002B7A" text-anchor="middle">새 결과로 바꾸기</text></g><g id="Button/Outline/기존 결과 유지 4"><rect x="44" y="398" width="272" height="48" rx="12" fill="none" stroke="#002B7A" stroke-width="1"/><text x="180" y="426.3" font-family="Pretendard" font-size="15" font-weight="500" letter-spacing="-0.3" fill="#002B7A" text-anchor="middle">기존 결과 유지</text></g><g id="Button/Quiet/계속 보기"><rect x="44" y="454" width="272" height="48" rx="12" fill="#F1F5F9"/><text x="180" y="483.3" font-family="Pretendard" font-size="15" font-weight="500" letter-spacing="-0.3" fill="#191F28" text-anchor="middle">계속 보기</text></g></g></g><rect x="0" y="0" width="360" height="800" rx="24" fill="none" stroke="#CBD5E1" stroke-width="2"/></g></g><text x="1696" y="1085.2" font-family="Pretendard" font-size="12" font-weight="400" letter-spacing="-0.24" fill="#475569" text-anchor="end">PULSE · TASK-020 Step 6 · 가상 데이터 · 정본: docs/design/synthesis/TASK-020</text></svg>