<svg xmlns="http://www.w3.org/2000/svg" xmlns:xlink="http://www.w3.org/1999/xlink" width="1336" height="1120" viewBox="0 0 1336 1120"><rect x="0" y="0" width="1336" height="1120" rx="0" fill="#FFFFFF"/><text x="64" y="75.6" font-family="Pretendard" font-size="26" font-weight="600" letter-spacing="-0.52" fill="#0F172A" text-anchor="start">08 · Final UI — 결과 상태</text><text x="64" y="107.4" font-family="Pretendard" font-size="14" font-weight="400" letter-spacing="-0.28" fill="#475569" text-anchor="start">빈 칸은 점선. 이미지 로딩(IMAGE-LOADING)은 채운 회색 영역과 문장, 조회 실패(IMAGE-LOAD-ERROR)는 같은 영역에 주의 아이콘·문장·다시 불러오기</text><g transform="translate(64 200)"><g id="Screen/Result-Partial"><text x="0" y="-24.6" font-family="Pretendard" font-size="14" font-weight="700" letter-spacing="-0.28" fill="#0F172A" text-anchor="start">유형 2개만 찾음</text><clipPath id="clip-Result-Partial"><rect x="0" y="0" width="360" height="800" rx="24" fill="none"/></clipPath><g clip-path="url(#clip-Result-Partial)"><rect x="0" y="0" width="360" height="800" rx="0" fill="#F5F7FA"/><rect x="0" y="0" width="360" height="32" rx="0" fill="#F5F7FA"/><g id="Header"><rect x="0" y="0" width="360" height="88" rx="0" fill="#FFFFFF"/><line x1="0" y1="88" x2="360" y2="88" stroke="#E2E8F0" stroke-width="1"/><text x="16" y="63.8" font-family="Pretendard" font-size="18" font-weight="700" letter-spacing="-0.36" fill="#002B7A" text-anchor="start">PULSE</text><rect x="242.16" y="46" width="101.84" height="28" rx="9999" fill="#F1F5F9"/><text x="332" y="64.4" font-family="Pretendard" font-size="14" font-weight="400" letter-spacing="-0.28" fill="#475569" text-anchor="end">저장된 결과</text></g><text x="16" y="135.6" font-family="Pretendard" font-size="26" font-weight="600" letter-spacing="-0.52" fill="#0F172A" text-anchor="start">영등원조쌈밥</text><text x="16" y="161.4" font-family="Pretendard" font-size="14" font-weight="400" letter-spacing="-0.28" fill="#475569" text-anchor="start">네이버 공개 리뷰 54건에서 유형 2개를 찾았어요.</text><g id="Podium"><text x="16" y="201.2" font-family="Pretendard" font-size="12" font-weight="400" letter-spacing="-0.24" fill="#475569" text-anchor="start">리뷰 수 순서</text><text x="16" y="231.0" font-family="Pretendard" font-size="20" font-weight="600" letter-spacing="-0.4" fill="#0F172A" text-anchor="start">리뷰에 많이 나온 손님 TOP3</text><rect x="16" y="248" width="328" height="306" rx="24" fill="#FFFFFF" stroke="#E2E8F0" stroke-width="1"/><g id="PodiumSlot/Runner"><g transform="translate(41.33333333333334 282) scale(1.25)"><circle cx="32" cy="32" r="32" fill="#FBE3DC"/><path d="M12 64c0-11 9-19 20-19s20 8 20 19H12Z" fill="#002B7A"/><rect x="27" y="38" width="10" height="8" rx="3" fill="#F2C9A8"/><circle cx="32" cy="28" r="13" fill="#F7D6B8"/><path d="M19 27a13 13 0 0 1 26 0c0-4-4-5-7-6-3-1-5-3-9-2s-6 3-7 5-3 2-3 3Z" fill="#0F172A"/><circle cx="27" cy="28" r="1.7" fill="#0F172A"/><circle cx="37" cy="28" r="1.7" fill="#0F172A"/><path d="M28.5 33.5a4.5 4.5 0 0 0 7 0" fill="none" stroke="#0F172A" stroke-width="1.6" stroke-linecap="round"/></g><text x="81.33333333333334" y="383.4" font-family="Pretendard" font-size="14" font-weight="600" letter-spacing="-0.28" fill="#0F172A" text-anchor="middle">혼밥</text><text x="81.33333333333334" y="404.4" font-family="Pretendard" font-size="14" font-weight="600" letter-spacing="-0.28" fill="#0F172A" text-anchor="middle">안심형</text><text x="81.33333333333334" y="423.2" font-family="Pretendard" font-size="12" font-weight="400" letter-spacing="-0.24" fill="#475569" text-anchor="middle">리뷰 19건</text><path d="M 36.00000000000001 496 L 36.00000000000001 452 Q 36.00000000000001 440 48.00000000000001 440 L 114.66666666666669 440 Q 126.66666666666669 440 126.66666666666669 452 L 126.66666666666669 496 Z" fill="#F1F5F9"/><text x="81.33333333333334" y="475.0" font-family="Pretendard" font-size="20" font-weight="600" letter-spacing="-0.4" fill="#002B7A" text-anchor="middle">2</text></g><g id="PodiumSlot/First"><g transform="translate(132.00000000000003 263) scale(1.5)"><circle cx="32" cy="32" r="32" fill="#DCE7F7"/><path d="M12 64c0-11 9-19 20-19s20 8 20 19H12Z" fill="#002B7A"/><rect x="27" y="38" width="10" height="8" rx="3" fill="#F2C9A8"/><circle cx="32" cy="28" r="13" fill="#F7D6B8"/><path d="M19 27a13 13 0 0 1 26 0c0-4-4-5-7-6-3-1-5-3-9-2s-6 3-7 5-3 2-3 3Z" fill="#0F172A"/><circle cx="27" cy="28" r="1.7" fill="#0F172A"/><circle cx="37" cy="28" r="1.7" fill="#0F172A"/><path d="M28.5 33.5a4.5 4.5 0 0 0 7 0" fill="none" stroke="#0F172A" stroke-width="1.6" stroke-linecap="round"/></g><circle cx="180.00000000000003" cy="311" r="51" fill="none" stroke="#002B7A" stroke-width="2"/><text x="180.00000000000003" y="380.4" font-family="Pretendard" font-size="14" font-weight="600" letter-spacing="-0.28" fill="#0F172A" text-anchor="middle">추억 재방문형</text><text x="180.00000000000003" y="399.2" font-family="Pretendard" font-size="12" font-weight="400" letter-spacing="-0.24" fill="#475569" text-anchor="middle">리뷰 24건</text><path d="M 134.66666666666669 496 L 134.66666666666669 428 Q 134.66666666666669 416 146.66666666666669 416 L 213.33333333333337 416 Q 225.33333333333337 416 225.33333333333337 428 L 225.33333333333337 496 Z" fill="#002B7A"/><text x="180.00000000000003" y="445.0" font-family="Pretendard" font-size="20" font-weight="600" letter-spacing="-0.4" fill="#FFFFFF" text-anchor="middle">1</text><text x="180.00000000000003" y="467.2" font-family="Pretendard" font-size="12" font-weight="400" letter-spacing="-0.24" fill="#FFFFFF" text-anchor="middle">보는 중</text></g><g id="PodiumSlot/Empty"><circle cx="278.6666666666667" cy="392" r="40" fill="none" stroke="#CBD5E1" stroke-width="1" stroke-dasharray="6 4"/><text x="278.6666666666667" y="417.2" font-family="Pretendard" font-size="12" font-weight="400" letter-spacing="-0.24" fill="#475569" text-anchor="middle">근거가 부족해</text><text x="278.6666666666667" y="435.2" font-family="Pretendard" font-size="12" font-weight="400" letter-spacing="-0.24" fill="#475569" text-anchor="middle">비웠어요</text><path d="M 233.33333333333334 496 L 233.33333333333334 460 Q 233.33333333333334 448 245.33333333333334 448 L 312 448 Q 324 448 324 460 L 324 496 Z" fill="#F8FAFC" stroke="#E2E8F0" stroke-width="1" stroke-dasharray="6 4"/><text x="278.6666666666667" y="479.0" font-family="Pretendard" font-size="20" font-weight="600" letter-spacing="-0.4" fill="#94A3B8" text-anchor="middle">3</text></g><text x="36" y="541.2" font-family="Pretendard" font-size="12" font-weight="400" letter-spacing="-0.24" fill="#475569" text-anchor="start">그림은 AI로 만든 가상 이미지예요.</text></g><g id="AnalysisInfo"><text x="16" y="571.0" font-family="Pretendard" font-size="20" font-weight="600" letter-spacing="-0.4" fill="#0F172A" text-anchor="start">이 결과는 이렇게 만들었어요</text><rect x="16" y="580" width="328" height="164" rx="24" fill="#FFFFFF" stroke="#E2E8F0" stroke-width="1"/><text x="36" y="609.4" font-family="Pretendard" font-size="14" font-weight="600" letter-spacing="-0.28" fill="#475569" text-anchor="start">네이버 공개 리뷰 기준</text><text x="36" y="641.2" font-family="Pretendard" font-size="12" font-weight="400" letter-spacing="-0.24" fill="#475569" text-anchor="start">분석한 리뷰</text><text x="36" y="663.4" font-family="Pretendard" font-size="14" font-weight="700" letter-spacing="-0.28" fill="#0F172A" text-anchor="start">59건</text><text x="132" y="641.2" font-family="Pretendard" font-size="12" font-weight="400" letter-spacing="-0.24" fill="#475569" text-anchor="start">수집</text><text x="132" y="663.4" font-family="Pretendard" font-size="14" font-weight="700" letter-spacing="-0.28" fill="#0F172A" text-anchor="start">2026.09.18</text><line x1="122" y1="628" x2="122" y2="672" stroke="#E2E8F0" stroke-width="1"/><text x="228" y="641.2" font-family="Pretendard" font-size="12" font-weight="400" letter-spacing="-0.24" fill="#475569" text-anchor="start">분석 완료</text><text x="228" y="663.4" font-family="Pretendard" font-size="14" font-weight="700" letter-spacing="-0.28" fill="#0F172A" text-anchor="start">2026.09.18</text><line x1="218" y1="628" x2="218" y2="672" stroke="#E2E8F0" stroke-width="1"/><text x="36" y="695.4" font-family="Pretendard" font-size="14" font-weight="400" letter-spacing="-0.28" fill="#475569" text-anchor="start">모은 리뷰 84건 가운데 59건을 썼어요.</text><rect x="32" y="706" width="296" height="26" rx="12" fill="#F1F5F9"/><text x="44" y="723.2" font-family="Pretendard" font-size="12" font-weight="400" letter-spacing="-0.24" fill="#475569" text-anchor="start">리뷰를 남긴 손님 기준이에요.</text></g><g id="BottomNavigation/home"><rect x="0" y="728" width="360" height="72" rx="0" fill="#FFFFFF"/><line x1="0" y1="728" x2="360" y2="728" stroke="#E2E8F0" stroke-width="1"/><text x="60" y="783.2" font-family="Pretendard" font-size="12" font-weight="400" letter-spacing="-0.24" fill="#002B7A" text-anchor="middle">홈</text><g transform="translate(48 738)"><path d="M3.5 10.2 12 3.6l8.5 6.6V19a1.5 1.5 0 0 1-1.5 1.5h-3.8v-5.6H8.8v5.6H5A1.5 1.5 0 0 1 3.5 19v-8.8Z" fill="none" stroke="#002B7A" stroke-width="2" stroke-linecap="round" stroke-linejoin="round"/></g><circle cx="180" cy="738" r="28" fill="#FF5A36" stroke="#FFFFFF" stroke-width="4"/><g transform="translate(168 726)"><path d="M3.6 8.4V5.6a2 2 0 0 1 2-2h2.8M15.6 3.6h2.8a2 2 0 0 1 2 2v2.8M20.4 15.6v2.8a2 2 0 0 1-2 2h-2.8M8.4 20.4H5.6a2 2 0 0 1-2-2v-2.8" fill="none" stroke="#191F28" stroke-width="2" stroke-linecap="round" stroke-linejoin="round"/><path d="M8.8 15.2v-2.4M12 15.2V8.8M15.2 15.2v-4" fill="none" stroke="#191F28" stroke-width="2" stroke-linecap="round" stroke-linejoin="round"/></g><text x="180" y="787.2" font-family="Pretendard" font-size="12" font-weight="400" letter-spacing="-0.24" fill="#002B7A" text-anchor="middle">분석하기</text><g transform="translate(288 738)"><path d="M12 11.3a3.65 3.65 0 1 0 0-7.3 3.65 3.65 0 0 0 0 7.3Z" fill="none" stroke="#475569" stroke-width="2" stroke-linecap="round" stroke-linejoin="round"/><path d="M4.8 20.4c0-3.6 3.2-6.2 7.2-6.2s7.2 2.6 7.2 6.2" fill="none" stroke="#475569" stroke-width="2" stroke-linecap="round" stroke-linejoin="round"/></g><text x="300" y="783.2" font-family="Pretendard" font-size="12" font-weight="400" letter-spacing="-0.24" fill="#475569" text-anchor="middle">마이페이지</text></g><text x="16" y="19.4" font-family="Pretendard" font-size="14" font-weight="600" letter-spacing="-0.28" fill="#191F28" text-anchor="start">9:41</text><rect x="312" y="10" width="22" height="11" rx="3" fill="none" stroke="#191F28" stroke-width="1"/><rect x="314" y="12" width="16" height="7" rx="1.5" fill="#191F28"/></g><rect x="0" y="0" width="360" height="800" rx="24" fill="none" stroke="#CBD5E1" stroke-width="2"/></g></g><g transform="translate(488 200)"><g id="Screen/Result-NoPersona"><text x="0" y="-24.6" font-family="Pretendard" font-size="14" font-weight="700" letter-spacing="-0.28" fill="#0F172A" text-anchor="start">유형 0개</text><clipPath id="clip-Result-NoPersona"><rect x="0" y="0" width="360" height="800" rx="24" fill="none"/></clipPath><g clip-path="url(#clip-Result-NoPersona)"><rect x="0" y="0" width="360" height="800" rx="0" fill="#F5F7FA"/><rect x="0" y="0" width="360" height="32" rx="0" fill="#F5F7FA"/><g id="Header 2"><rect x="0" y="0" width="360" height="88" rx="0" fill="#FFFFFF"/><line x1="0" y1="88" x2="360" y2="88" stroke="#E2E8F0" stroke-width="1"/><text x="16" y="63.8" font-family="Pretendard" font-size="18" font-weight="700" letter-spacing="-0.36" fill="#002B7A" text-anchor="start">PULSE</text><rect x="242.16" y="46" width="101.84" height="28" rx="9999" fill="#F1F5F9"/><text x="332" y="64.4" font-family="Pretendard" font-size="14" font-weight="400" letter-spacing="-0.28" fill="#475569" text-anchor="end">저장된 결과</text></g><text x="16" y="135.6" font-family="Pretendard" font-size="26" font-weight="600" letter-spacing="-0.52" fill="#0F172A" text-anchor="start">영등원조쌈밥</text><text x="16" y="161.4" font-family="Pretendard" font-size="14" font-weight="400" letter-spacing="-0.28" fill="#475569" text-anchor="start">리뷰는 모았지만 근거를 충족한 유형이 없어요.</text><g id="Podium 2"><text x="16" y="201.2" font-family="Pretendard" font-size="12" font-weight="400" letter-spacing="-0.24" fill="#475569" text-anchor="start">리뷰 수 순서</text><text x="16" y="231.0" font-family="Pretendard" font-size="20" font-weight="600" letter-spacing="-0.4" fill="#0F172A" text-anchor="start">리뷰에 많이 나온 손님 TOP3</text><rect x="16" y="248" width="328" height="306" rx="24" fill="#FFFFFF" stroke="#E2E8F0" stroke-width="1"/><g id="PodiumSlot/Empty 2"><circle cx="81.33333333333334" cy="384" r="40" fill="none" stroke="#CBD5E1" stroke-width="1" stroke-dasharray="6 4"/><text x="81.33333333333334" y="409.2" font-family="Pretendard" font-size="12" font-weight="400" letter-spacing="-0.24" fill="#475569" text-anchor="middle">근거가</text><text x="81.33333333333334" y="427.2" font-family="Pretendard" font-size="12" font-weight="400" letter-spacing="-0.24" fill="#475569" text-anchor="middle">부족해요</text><path d="M 36.00000000000001 496 L 36.00000000000001 452 Q 36.00000000000001 440 48.00000000000001 440 L 114.66666666666669 440 Q 126.66666666666669 440 126.66666666666669 452 L 126.66666666666669 496 Z" fill="#F8FAFC" stroke="#E2E8F0" stroke-width="1" stroke-dasharray="6 4"/><text x="81.33333333333334" y="475.0" font-family="Pretendard" font-size="20" font-weight="600" letter-spacing="-0.4" fill="#94A3B8" text-anchor="middle">2</text></g><g id="PodiumSlot/Empty 3"><circle cx="180.00000000000003" cy="360" r="48" fill="none" stroke="#CBD5E1" stroke-width="1" stroke-dasharray="6 4"/><text x="180.00000000000003" y="385.2" font-family="Pretendard" font-size="12" font-weight="400" letter-spacing="-0.24" fill="#475569" text-anchor="middle">근거가</text><text x="180.00000000000003" y="403.2" font-family="Pretendard" font-size="12" font-weight="400" letter-spacing="-0.24" fill="#475569" text-anchor="middle">부족해요</text><path d="M 134.66666666666669 496 L 134.66666666666669 428 Q 134.66666666666669 416 146.66666666666669 416 L 213.33333333333337 416 Q 225.33333333333337 416 225.33333333333337 428 L 225.33333333333337 496 Z" fill="#F8FAFC" stroke="#E2E8F0" stroke-width="1" stroke-dasharray="6 4"/><text x="180.00000000000003" y="463.0" font-family="Pretendard" font-size="20" font-weight="600" letter-spacing="-0.4" fill="#94A3B8" text-anchor="middle">1</text></g><g id="PodiumSlot/Empty 4"><circle cx="278.6666666666667" cy="392" r="40" fill="none" stroke="#CBD5E1" stroke-width="1" stroke-dasharray="6 4"/><text x="278.6666666666667" y="417.2" font-family="Pretendard" font-size="12" font-weight="400" letter-spacing="-0.24" fill="#475569" text-anchor="middle">근거가</text><text x="278.6666666666667" y="435.2" font-family="Pretendard" font-size="12" font-weight="400" letter-spacing="-0.24" fill="#475569" text-anchor="middle">부족해요</text><path d="M 233.33333333333334 496 L 233.33333333333334 460 Q 233.33333333333334 448 245.33333333333334 448 L 312 448 Q 324 448 324 460 L 324 496 Z" fill="#F8FAFC" stroke="#E2E8F0" stroke-width="1" stroke-dasharray="6 4"/><text x="278.6666666666667" y="479.0" font-family="Pretendard" font-size="20" font-weight="600" letter-spacing="-0.4" fill="#94A3B8" text-anchor="middle">3</text></g><text x="36" y="541.2" font-family="Pretendard" font-size="12" font-weight="400" letter-spacing="-0.24" fill="#475569" text-anchor="start">그림은 AI로 만든 가상 이미지예요.</text></g><g id="AnalysisInfo 2"><text x="16" y="571.0" font-family="Pretendard" font-size="20" font-weight="600" letter-spacing="-0.4" fill="#0F172A" text-anchor="start">이 결과는 이렇게 만들었어요</text><rect x="16" y="580" width="328" height="164" rx="24" fill="#FFFFFF" stroke="#E2E8F0" stroke-width="1"/><text x="36" y="609.4" font-family="Pretendard" font-size="14" font-weight="600" letter-spacing="-0.28" fill="#475569" text-anchor="start">네이버 공개 리뷰 기준</text><text x="36" y="641.2" font-family="Pretendard" font-size="12" font-weight="400" letter-spacing="-0.24" fill="#475569" text-anchor="start">분석한 리뷰</text><text x="36" y="663.4" font-family="Pretendard" font-size="14" font-weight="700" letter-spacing="-0.28" fill="#0F172A" text-anchor="start">59건</text><text x="132" y="641.2" font-family="Pretendard" font-size="12" font-weight="400" letter-spacing="-0.24" fill="#475569" text-anchor="start">수집</text><text x="132" y="663.4" font-family="Pretendard" font-size="14" font-weight="700" letter-spacing="-0.28" fill="#0F172A" text-anchor="start">2026.09.18</text><line x1="122" y1="628" x2="122" y2="672" stroke="#E2E8F0" stroke-width="1"/><text x="228" y="641.2" font-family="Pretendard" font-size="12" font-weight="400" letter-spacing="-0.24" fill="#475569" text-anchor="start">분석 완료</text><text x="228" y="663.4" font-family="Pretendard" font-size="14" font-weight="700" letter-spacing="-0.28" fill="#0F172A" text-anchor="start">2026.09.18</text><line x1="218" y1="628" x2="218" y2="672" stroke="#E2E8F0" stroke-width="1"/><text x="36" y="695.4" font-family="Pretendard" font-size="14" font-weight="400" letter-spacing="-0.28" fill="#475569" text-anchor="start">모은 리뷰 84건 가운데 59건을 썼어요.</text><rect x="32" y="706" width="296" height="26" rx="12" fill="#F1F5F9"/><text x="44" y="723.2" font-family="Pretendard" font-size="12" font-weight="400" letter-spacing="-0.24" fill="#475569" text-anchor="start">리뷰를 남긴 손님 기준이에요.</text></g><g id="BottomNavigation/home 2"><rect x="0" y="728" width="360" height="72" rx="0" fill="#FFFFFF"/><line x1="0" y1="728" x2="360" y2="728" stroke="#E2E8F0" stroke-width="1"/><text x="60" y="783.2" font-family="Pretendard" font-size="12" font-weight="400" letter-spacing="-0.24" fill="#002B7A" text-anchor="middle">홈</text><g transform="translate(48 738)"><path d="M3.5 10.2 12 3.6l8.5 6.6V19a1.5 1.5 0 0 1-1.5 1.5h-3.8v-5.6H8.8v5.6H5A1.5 1.5 0 0 1 3.5 19v-8.8Z" fill="none" stroke="#002B7A" stroke-width="2" stroke-linecap="round" stroke-linejoin="round"/></g><circle cx="180" cy="738" r="28" fill="#FF5A36" stroke="#FFFFFF" stroke-width="4"/><g transform="translate(168 726)"><path d="M3.6 8.4V5.6a2 2 0 0 1 2-2h2.8M15.6 3.6h2.8a2 2 0 0 1 2 2v2.8M20.4 15.6v2.8a2 2 0 0 1-2 2h-2.8M8.4 20.4H5.6a2 2 0 0 1-2-2v-2.8" fill="none" stroke="#191F28" stroke-width="2" stroke-linecap="round" stroke-linejoin="round"/><path d="M8.8 15.2v-2.4M12 15.2V8.8M15.2 15.2v-4" fill="none" stroke="#191F28" stroke-width="2" stroke-linecap="round" stroke-linejoin="round"/></g><text x="180" y="787.2" font-family="Pretendard" font-size="12" font-weight="400" letter-spacing="-0.24" fill="#002B7A" text-anchor="middle">분석하기</text><g transform="translate(288 738)"><path d="M12 11.3a3.65 3.65 0 1 0 0-7.3 3.65 3.65 0 0 0 0 7.3Z" fill="none" stroke="#475569" stroke-width="2" stroke-linecap="round" stroke-linejoin="round"/><path d="M4.8 20.4c0-3.6 3.2-6.2 7.2-6.2s7.2 2.6 7.2 6.2" fill="none" stroke="#475569" stroke-width="2" stroke-linecap="round" stroke-linejoin="round"/></g><text x="300" y="783.2" font-family="Pretendard" font-size="12" font-weight="400" letter-spacing="-0.24" fill="#475569" text-anchor="middle">마이페이지</text></g><text x="16" y="19.4" font-family="Pretendard" font-size="14" font-weight="600" letter-spacing="-0.28" fill="#191F28" text-anchor="start">9:41</text><rect x="312" y="10" width="22" height="11" rx="3" fill="none" stroke="#191F28" stroke-width="1"/><rect x="314" y="12" width="16" height="7" rx="1.5" fill="#191F28"/></g><rect x="0" y="0" width="360" height="800" rx="24" fill="none" stroke="#CBD5E1" stroke-width="2"/></g></g><g transform="translate(912 200)"><g id="Screen/Image-States"><text x="0" y="-24.6" font-family="Pretendard" font-size="14" font-weight="700" letter-spacing="-0.28" fill="#0F172A" text-anchor="start">이미지 불러오는 중 · 실패</text><clipPath id="clip-Image-States"><rect x="0" y="0" width="360" height="800" rx="24" fill="none"/></clipPath><g clip-path="url(#clip-Image-States)"><rect x="0" y="0" width="360" height="800" rx="0" fill="#F5F7FA"/><rect x="0" y="0" width="360" height="32" rx="0" fill="#F5F7FA"/><g id="Header/Result"><text x="16" y="67.2" font-family="Pretendard" font-size="22" font-weight="600" letter-spacing="-0.44" fill="#002B7A" text-anchor="start">PULSE</text><line x1="100" y1="50" x2="100" y2="70" stroke="#CBD5E1" stroke-width="1"/><text x="110" y="64.4" font-family="Pretendard" font-size="14" font-weight="400" letter-spacing="-0.28" fill="#475569" text-anchor="start">손님 분석</text></g><rect x="16" y="96" width="328" height="210" rx="24" fill="#FFFFFF" stroke="#E2E8F0" stroke-width="1"/><rect x="36" y="116" width="120" height="120" rx="12" fill="#F1F5F9"/><text x="96" y="179.2" font-family="Pretendard" font-size="12" font-weight="400" letter-spacing="-0.24" fill="#475569" text-anchor="middle">이미지를</text><text x="96" y="197.2" font-family="Pretendard" font-size="12" font-weight="400" letter-spacing="-0.24" fill="#475569" text-anchor="middle">불러오는 중</text><text x="172" y="139.2" font-family="Pretendard" font-size="12" font-weight="400" letter-spacing="-0.24" fill="#002B7A" text-anchor="start">1위 손님 유형</text><text x="172" y="167.0" font-family="Pretendard" font-size="20" font-weight="600" letter-spacing="-0.4" fill="#0F172A" text-anchor="start">추억 재방문형</text><text x="172" y="195.4" font-family="Pretendard" font-size="14" font-weight="400" letter-spacing="-0.28" fill="#475569" text-anchor="start">변함없는 맛을</text><text x="172" y="216.4" font-family="Pretendard" font-size="14" font-weight="400" letter-spacing="-0.28" fill="#475569" text-anchor="start">다시 찾는 방문</text><rect x="16" y="326" width="328" height="210" rx="24" fill="#FFFFFF" stroke="#E2E8F0" stroke-width="1"/><rect x="36" y="346" width="120" height="120" rx="12" fill="#F1F5F9"/><text x="96" y="381.4" font-family="Pretendard" font-size="14" font-weight="700" letter-spacing="-0.28" fill="#B45309" text-anchor="middle">!</text><text x="96" y="403.2" font-family="Pretendard" font-size="12" font-weight="400" letter-spacing="-0.24" fill="#475569" text-anchor="middle">이미지를 불러오지</text><text x="96" y="421.2" font-family="Pretendard" font-size="12" font-weight="400" letter-spacing="-0.24" fill="#475569" text-anchor="middle">못했어요</text><text x="96" y="451.4" font-family="Pretendard" font-size="14" font-weight="600" letter-spacing="-0.28" fill="#002B7A" text-anchor="middle">다시 불러오기</text><text x="172" y="369.2" font-family="Pretendard" font-size="12" font-weight="400" letter-spacing="-0.24" fill="#002B7A" text-anchor="start">1위 손님 유형</text><text x="172" y="397.0" font-family="Pretendard" font-size="20" font-weight="600" letter-spacing="-0.4" fill="#0F172A" text-anchor="start">추억 재방문형</text><text x="172" y="425.4" font-family="Pretendard" font-size="14" font-weight="400" letter-spacing="-0.28" fill="#475569" text-anchor="start">변함없는 맛을</text><text x="172" y="446.4" font-family="Pretendard" font-size="14" font-weight="400" letter-spacing="-0.28" fill="#475569" text-anchor="start">다시 찾는 방문</text><g id="BottomNavigation/home 3"><rect x="0" y="728" width="360" height="72" rx="0" fill="#FFFFFF"/><line x1="0" y1="728" x2="360" y2="728" stroke="#E2E8F0" stroke-width="1"/><text x="60" y="783.2" font-family="Pretendard" font-size="12" font-weight="400" letter-spacing="-0.24" fill="#002B7A" text-anchor="middle">홈</text><g transform="translate(48 738)"><path d="M3.5 10.2 12 3.6l8.5 6.6V19a1.5 1.5 0 0 1-1.5 1.5h-3.8v-5.6H8.8v5.6H5A1.5 1.5 0 0 1 3.5 19v-8.8Z" fill="none" stroke="#002B7A" stroke-width="2" stroke-linecap="round" stroke-linejoin="round"/></g><circle cx="180" cy="738" r="28" fill="#FF5A36" stroke="#FFFFFF" stroke-width="4"/><g transform="translate(168 726)"><path d="M3.6 8.4V5.6a2 2 0 0 1 2-2h2.8M15.6 3.6h2.8a2 2 0 0 1 2 2v2.8M20.4 15.6v2.8a2 2 0 0 1-2 2h-2.8M8.4 20.4H5.6a2 2 0 0 1-2-2v-2.8" fill="none" stroke="#191F28" stroke-width="2" stroke-linecap="round" stroke-linejoin="round"/><path d="M8.8 15.2v-2.4M12 15.2V8.8M15.2 15.2v-4" fill="none" stroke="#191F28" stroke-width="2" stroke-linecap="round" stroke-linejoin="round"/></g><text x="180" y="787.2" font-family="Pretendard" font-size="12" font-weight="400" letter-spacing="-0.24" fill="#002B7A" text-anchor="middle">분석하기</text><g transform="translate(288 738)"><path d="M12 11.3a3.65 3.65 0 1 0 0-7.3 3.65 3.65 0 0 0 0 7.3Z" fill="none" stroke="#475569" stroke-width="2" stroke-linecap="round" stroke-linejoin="round"/><path d="M4.8 20.4c0-3.6 3.2-6.2 7.2-6.2s7.2 2.6 7.2 6.2" fill="none" stroke="#475569" stroke-width="2" stroke-linecap="round" stroke-linejoin="round"/></g><text x="300" y="783.2" font-family="Pretendard" font-size="12" font-weight="400" letter-spacing="-0.24" fill="#475569" text-anchor="middle">마이페이지</text></g><text x="16" y="19.4" font-family="Pretendard" font-size="14" font-weight="600" letter-spacing="-0.28" fill="#191F28" text-anchor="start">9:41</text><rect x="312" y="10" width="22" height="11" rx="3" fill="none" stroke="#191F28" stroke-width="1"/><rect x="314" y="12" width="16" height="7" rx="1.5" fill="#191F28"/></g><rect x="0" y="0" width="360" height="800" rx="24" fill="none" stroke="#CBD5E1" stroke-width="2"/></g></g><text x="1272" y="1085.2" font-family="Pretendard" font-size="12" font-weight="400" letter-spacing="-0.24" fill="#475569" text-anchor="end">PULSE · TASK-020 Step 6 · 가상 데이터 · 정본: docs/design/synthesis/TASK-020</text></svg>